<?xml version="1.0" standalone="no"?>
<!DOCTYPE svg PUBLIC "-//W3C//DTD SVG 1.1//EN" "http://www.w3.org/Graphics/SVG/1.1/DTD/svg11.dtd" >
<!--
2013-9-30: Created.
-->
<svg>
<metadata>
Created by iconfont
</metadata>
<defs>

<font id="iconfont" horiz-adv-x="1024" >
  <font-face
    font-family="iconfont"
    font-weight="500"
    font-stretch="normal"
    units-per-em="1024"
    ascent="896"
    descent="-128"
  />
    <missing-glyph />
    
    <glyph glyph-name="x" unicode="x" horiz-adv-x="1001"
d="M281 543q-27 -1 -53 -1h-83q-18 0 -36.5 -6t-32.5 -18.5t-23 -32t-9 -45.5v-76h912v41q0 16 -0.5 30t-0.5 18q0 13 -5 29t-17 29.5t-31.5 22.5t-49.5 9h-133v-97h-438v97zM955 310v-52q0 -23 0.5 -52t0.5 -58t-10.5 -47.5t-26 -30t-33 -16t-31.5 -4.5q-14 -1 -29.5 -0.5
t-29.5 0.5h-32l-45 128h-439l-44 -128h-29h-34q-20 0 -45 1q-25 0 -41 9.5t-25.5 23t-13.5 29.5t-4 30v167h911zM163 247q-12 0 -21 -8.5t-9 -21.5t9 -21.5t21 -8.5q13 0 22 8.5t9 21.5t-9 21.5t-22 8.5zM316 123q-8 -26 -14 -48q-5 -19 -10.5 -37t-7.5 -25t-3 -15t1 -14.5
t9.5 -10.5t21.5 -4h37h67h81h80h64h36q23 0 34 12t2 38q-5 13 -9.5 30.5t-9.5 34.5q-5 19 -11 39h-368zM336 498v228q0 11 2.5 23t10 21.5t20.5 15.5t34 6h188q31 0 51.5 -14.5t20.5 -52.5v-227h-327z" />
    

    
    <glyph glyph-name="gerenzhongxinwodedingdan" unicode="&#58893;" d="M768.672228 625.71048l-93.086906 0 0-11.636247c0-38.555053-31.24912-69.815436-69.815436-69.815436L419.596073 544.258797c-38.555053 0-69.815436 31.260383-69.815436 69.815436l0 11.636247-93.086906 0c-38.555053 0-69.815436-31.260383-69.815436-69.815436l0-558.510175c0-38.566316 31.259359-69.815436 69.815436-69.815436l511.978497 0c38.566316 0 69.815436 31.24912 69.815436 69.815436L838.487664 555.895044C838.487664 594.450097 807.238544 625.71048 768.672228 625.71048zM675.585321 113.743247 349.780637 113.743247c-12.851684 0-23.272495 10.408523-23.272495 23.272495 0 12.840421 10.419786 23.272495 23.272495 23.272495l325.804684 0c12.840421 0 23.272495-10.432074 23.272495-23.272495C698.857816 124.15177 688.425742 113.743247 675.585321 113.743247zM675.585321 253.374118 349.780637 253.374118c-12.851684 0-23.272495 10.408523-23.272495 23.271471 0 12.840421 10.419786 23.261231 23.272495 23.261231l325.804684 0c12.840421 0 23.272495-10.42081 23.272495-23.261231C698.857816 263.782641 688.425742 253.374118 675.585321 253.374118zM675.585321 392.992702 349.780637 392.992702c-12.851684 0-23.272495 10.419786-23.272495 23.271471s10.419786 23.271471 23.272495 23.271471l325.804684 0c12.840421 0 23.272495-10.419786 23.272495-23.271471S688.425742 392.992702 675.585321 392.992702zM431.23232 579.166515l162.902342 0c19.294422 0 34.907718 15.635823 34.907718 34.907718l0 23.272495c0 19.283158-15.613296 34.907718-34.907718 34.907718L431.23232 672.254445c-19.283158 0-34.907718-15.62456-34.907718-34.907718l0-23.272495C396.324602 594.802338 411.949162 579.166515 431.23232 579.166515z"  horiz-adv-x="1024" />

    
    <glyph glyph-name="gerenzhongxinwodeqianbao" unicode="&#58894;" d="M895.983873 381.445539 686.538589 381.445539c-19.295446 0-34.907718-15.62456-34.907718-34.907718l0-93.075643c0-19.294422 15.612272-34.907718 34.907718-34.907718L895.983873 218.554461c19.295446 0 34.907718 15.613296 34.907718 34.907718l0 93.075643C930.891591 365.82098 915.279318 381.445539 895.983873 381.445539zM733.081531 265.097402c-19.294422 0-34.907718 15.613296-34.907718 34.896454 0 19.284182 15.613296 34.907718 34.907718 34.907718 19.295446 0 34.907718-15.62456 34.907718-34.907718C767.989248 280.710698 752.376976 265.097402 733.081531 265.097402zM605.086906 241.826955 605.086906 358.174069c0 38.555053 31.24912 69.815436 69.815436 69.815436l209.446307 0L884.348649 544.347881c0 38.555053-31.24912 69.815436-69.815436 69.815436L162.924869 614.163317c-38.555053 0-69.815436-31.260383-69.815436-69.815436l0-488.695763c0-38.566316 31.260383-69.815436 69.815436-69.815436l651.609368 0c38.566316 0 69.815436 31.24912 69.815436 69.815436L884.349673 172.01152 674.902342 172.01152C636.336026 172.01152 605.086906 203.259615 605.086906 241.826955zM200.570648 102.423402l-14.135726 0L186.434922 498.053762l14.135726 0L200.570648 102.423402z"  horiz-adv-x="1024" />

    
    <glyph glyph-name="payment" unicode="&#58935;" d="M512 790.909c-231.377 0-418.909-187.532-418.909-418.909s187.532-418.909 418.909-418.909 418.909 187.532 418.909 418.909c0 231.377-187.532 418.909-418.909 418.909zM512 162.545c-115.665 0-209.455 93.789-209.455 209.455s93.789 209.455 209.455 209.455 209.455-93.789 209.455-209.455-93.789-209.455-209.455-209.455z"  horiz-adv-x="1024" />

    
    <glyph glyph-name="xitongshezhi" unicode="&#58992;" d="M515.237 467.551c-25.41 0-49.311-9.905-67.279-27.874s-27.874-41.862-27.874-67.279c0-25.432 9.905-49.311 27.874-67.286s41.869-27.867 67.279-27.867c25.432 0 49.318 9.891 67.294 27.867 17.969 17.976 27.86 41.862 27.86 67.286 0 25.418-9.891 49.311-27.86 67.279-17.976 17.969-41.869 27.874-67.294 27.874zM693.088 535.697c0 17.224 4.06 34.023 11.784 49.217-28.243 25.186-61.441 44.651-97.039 56.904-8.46-13.785-19.919-25.555-33.618-34.42-17.571-11.387-37.96-17.391-58.97-17.391-21.018 0-41.399 6.011-58.978 17.391-13.699 8.872-25.157 20.635-33.625 34.42-35.222-12.124-68.096-31.313-96.129-56.117 7.998-15.382 12.189-32.455 12.189-50.004 0-58.01-45.705-105.543-103-108.498-3.497-17.976-5.274-36.356-5.274-54.787 0-18.453 1.777-36.826 5.274-54.802 57.294-2.948 103-50.481 103-108.491 0-17.557-4.191-34.622-12.189-50.011 28.033-24.803 60.907-43.986 96.129-56.117 8.468 13.785 19.927 25.555 33.625 34.434 17.571 11.372 37.96 17.383 58.978 17.383 21.01 0 41.399-6.011 58.97-17.383 13.699-8.88 25.157-20.642 33.618-34.434 35.612 12.254 68.789 31.725 97.039 56.919-7.724 15.18-11.784 31.985-11.784 49.21 0 57.562 45.012 104.799 101.67 108.411 3.504 17.997 5.296 36.414 5.296 54.881 0 18.46-1.792 36.876-5.296 54.874-56.658 3.605-101.67 50.85-101.67 108.411zM515.237 250.049c-67.561 0-122.334 54.773-122.334 122.348 0 67.568 54.773 122.327 122.334 122.327 67.575 0 122.341-54.766 122.341-122.327-0.007-67.575-54.773-122.348-122.341-122.348zM515.237 873.936c-276.992 0-501.538-224.546-501.538-501.545 0-276.971 224.546-501.517 501.538-501.517 276.992 0 501.545 224.539 501.545 501.517-0.007 276.999-224.56 501.545-501.545 501.545zM818.998 300.985c0-0.014 0-0.022 0-0.036-0.058-0.217-0.123-0.426-0.173-0.636-0.065-0.181-0.116-0.39-0.166-0.571-0.072-0.188-0.152-0.383-0.217-0.571-0.079-0.202-0.152-0.405-0.238-0.6-0.072-0.159-0.152-0.318-0.224-0.484-0.123-0.217-0.217-0.433-0.34-0.636-0.079-0.144-0.159-0.267-0.238-0.412-0.137-0.231-0.275-0.455-0.426-0.657-0.094-0.123-0.166-0.224-0.246-0.347-0.159-0.231-0.34-0.455-0.52-0.657-0.079-0.101-0.152-0.195-0.231-0.289-0.202-0.224-0.405-0.441-0.621-0.65-0.079-0.079-0.152-0.152-0.238-0.231-0.231-0.231-0.491-0.455-0.751-0.657-0.058-0.043-0.101-0.094-0.152-0.144-0.318-0.246-0.636-0.477-0.975-0.694-0.123-0.087-0.238-0.144-0.361-0.217-0.217-0.137-0.441-0.267-0.665-0.39-0.152-0.094-0.325-0.159-0.484-0.238-0.195-0.101-0.397-0.195-0.592-0.282-0.181-0.079-0.34-0.137-0.52-0.202-0.217-0.079-0.419-0.159-0.636-0.224-0.166-0.058-0.34-0.108-0.499-0.152-0.238-0.065-0.484-0.13-0.73-0.173-0.152-0.043-0.296-0.072-0.455-0.101-0.303-0.058-0.621-0.101-0.939-0.144-0.087-0.007-0.181-0.029-0.267-0.036-0.433-0.043-0.853-0.065-1.286-0.065-0.144 0-0.275 0.014-0.412 0.014-0.058 0-0.116 0-0.173 0-0.051 0.007-0.108 0.007-0.166 0.007l-0.022 0c-1.192 0.051-2.269 0.072-3.273 0.072-44.925 0-81.469-36.544-81.469-81.455 0-15.844 4.559-31.198 13.157-44.405 0.022-0.022 0.022-0.043 0.043-0.058 0.173-0.282 0.34-0.571 0.491-0.853 0.065-0.116 0.13-0.217 0.173-0.332 0.144-0.275 0.26-0.556 0.383-0.831 0.058-0.144 0.144-0.282 0.188-0.419 0.087-0.217 0.152-0.455 0.224-0.679 0.072-0.195 0.144-0.397 0.195-0.607 0.043-0.152 0.065-0.296 0.101-0.448 0.072-0.289 0.144-0.564 0.195-0.853 0.014-0.072 0.014-0.144 0.022-0.21 0.065-0.368 0.123-0.73 0.144-1.091 0-0.029 0-0.072 0-0.108 0.029-0.397 0.043-0.795 0.043-1.185 0-0.123-0.022-0.231-0.022-0.347-0.022-0.318-0.043-0.636-0.072-0.946-0.029-0.275-0.094-0.542-0.13-0.816-0.036-0.152-0.043-0.303-0.087-0.455-0.079-0.368-0.166-0.715-0.275-1.069-0.022-0.058-0.029-0.13-0.051-0.188-0.116-0.325-0.224-0.65-0.347-0.975-0.043-0.079-0.072-0.173-0.101-0.253-0.123-0.26-0.238-0.506-0.361-0.751-0.079-0.152-0.152-0.296-0.224-0.448-0.094-0.181-0.21-0.354-0.311-0.52-0.144-0.202-0.26-0.426-0.397-0.636-0.087-0.123-0.181-0.224-0.26-0.347-0.173-0.246-0.368-0.491-0.564-0.737-0.079-0.101-0.166-0.181-0.246-0.282-0.217-0.246-0.455-0.484-0.694-0.723-0.014-0.022-0.029-0.036-0.051-0.051-35.583-34.218-79.244-59.78-126.271-73.912-0.022 0-0.043-0.007-0.065-0.022-0.614-0.173-1.228-0.318-1.842-0.405-0.043-0.014-0.101-0.014-0.152-0.022-0.253-0.036-0.499-0.065-0.759-0.087-0.058-0.007-0.123-0.014-0.188-0.014-0.296-0.022-0.592-0.036-0.881-0.036l-0.022 0c-0.036 0-0.058 0-0.101 0-0.296 0-0.607 0.014-0.91 0.043-0.144 0.007-0.282 0.029-0.419 0.043-0.202 0.014-0.405 0.051-0.585 0.072-0.159 0.029-0.311 0.058-0.47 0.087-0.173 0.029-0.354 0.065-0.535 0.116-0.152 0.029-0.296 0.072-0.455 0.108-0.181 0.051-0.361 0.101-0.535 0.159-0.144 0.036-0.282 0.087-0.426 0.13-0.195 0.072-0.376 0.144-0.571 0.217-0.123 0.051-0.238 0.094-0.361 0.152-0.217 0.094-0.441 0.195-0.657 0.296-0.079 0.051-0.152 0.087-0.246 0.137-0.614 0.318-1.199 0.672-1.756 1.084-0.022 0-0.022 0.014-0.043 0.022-0.253 0.188-0.513 0.405-0.759 0.607-0.065 0.065-0.13 0.123-0.188 0.166-0.188 0.166-0.376 0.347-0.556 0.513-0.079 0.094-0.152 0.181-0.246 0.267-0.152 0.152-0.296 0.311-0.441 0.477-0.101 0.108-0.188 0.217-0.275 0.325-0.137 0.152-0.246 0.311-0.347 0.455-0.116 0.144-0.202 0.267-0.303 0.412-0.101 0.137-0.195 0.289-0.289 0.441-0.087 0.152-0.181 0.296-0.275 0.455s-0.166 0.303-0.246 0.455c-0.079 0.152-0.159 0.318-0.238 0.484-0.022 0.029-0.043 0.058-0.058 0.101-6.495 13.793-16.711 25.483-29.543 33.791-13.157 8.518-28.452 13.027-44.21 13.027-15.751 0-31.039-4.508-44.195-13.027-12.832-8.302-23.048-19.999-29.55-33.791-0.007-0.029-0.022-0.065-0.036-0.079-0.368-0.773-0.809-1.51-1.308-2.189-0.079-0.116-0.159-0.21-0.238-0.311-0.166-0.217-0.347-0.441-0.527-0.643-0.108-0.123-0.217-0.238-0.325-0.354-0.173-0.181-0.354-0.354-0.535-0.535-0.123-0.108-0.231-0.217-0.354-0.325-0.224-0.188-0.448-0.368-0.679-0.542-0.137-0.116-0.282-0.217-0.426-0.318-0.26-0.188-0.52-0.376-0.788-0.527-0.137-0.079-0.282-0.159-0.419-0.238-0.21-0.123-0.426-0.238-0.65-0.347-0.144-0.072-0.289-0.13-0.441-0.195-0.231-0.116-0.462-0.195-0.708-0.303-0.13-0.051-0.267-0.101-0.405-0.152-0.289-0.101-0.585-0.181-0.889-0.267-0.087-0.029-0.166-0.058-0.26-0.079-0.397-0.101-0.788-0.173-1.199-0.246-0.065-0.007-0.137-0.007-0.21-0.022-0.325-0.051-0.657-0.079-0.99-0.108-0.144-0.014-0.282-0.014-0.426-0.022-0.159 0-0.318-0.022-0.484-0.022-0.108 0-0.224 0.007-0.332 0.022-0.137 0-0.267 0-0.405 0.007-0.296 0.022-0.585 0.051-0.881 0.079-0.108 0.022-0.217 0.022-0.318 0.043-0.368 0.051-0.737 0.13-1.113 0.21-0.152 0.036-0.289 0.079-0.441 0.108-0.137 0.043-0.289 0.079-0.426 0.123-46.652 14.024-90.016 39.297-125.433 73.11-0.036 0.029-0.072 0.065-0.108 0.108-0.195 0.195-0.39 0.412-0.578 0.614-0.123 0.137-0.246 0.26-0.354 0.39-0.173 0.21-0.332 0.419-0.484 0.629-0.116 0.152-0.231 0.311-0.34 0.462-0.13 0.188-0.246 0.39-0.361 0.585-0.116 0.188-0.231 0.383-0.34 0.578-0.094 0.166-0.173 0.347-0.26 0.52-0.116 0.217-0.224 0.441-0.318 0.679-0.065 0.159-0.123 0.332-0.188 0.491-0.087 0.238-0.181 0.484-0.26 0.744-0.051 0.166-0.094 0.34-0.144 0.513-0.058 0.246-0.13 0.484-0.181 0.737-0.036 0.195-0.065 0.397-0.094 0.585-0.043 0.224-0.087 0.455-0.108 0.686-0.022 0.231-0.036 0.455-0.051 0.686-0.014 0.195-0.029 0.405-0.036 0.607 0 0.246 0.007 0.499 0.022 0.751 0 0.173 0.007 0.361 0.014 0.535 0.022 0.26 0.058 0.513 0.094 0.766 0.022 0.173 0.043 0.368 0.072 0.542 0.043 0.224 0.101 0.462 0.159 0.708 0.043 0.195 0.087 0.397 0.144 0.585 0.051 0.21 0.13 0.412 0.195 0.614 0.072 0.231 0.144 0.455 0.231 0.679 0.072 0.166 0.144 0.325 0.224 0.506 0.108 0.246 0.217 0.491 0.34 0.737 0.072 0.152 0.159 0.289 0.246 0.448 0.137 0.246 0.282 0.499 0.441 0.737 0.022 0.043 0.043 0.094 0.072 0.137 8.894 13.366 13.597 28.951 13.597 45.07 0 44.918-36.544 81.455-81.469 81.455-1.452 0-2.977-0.043-4.516-0.13-0.282-0.022-0.556-0.036-0.838-0.036-0.426 0-0.845 0.036-1.272 0.072-0.108 0.014-0.202 0.029-0.303 0.043-0.303 0.029-0.6 0.079-0.896 0.13-0.152 0.029-0.303 0.072-0.462 0.101-0.231 0.065-0.462 0.116-0.701 0.181-0.173 0.051-0.347 0.101-0.52 0.152-0.202 0.072-0.412 0.144-0.607 0.21-0.181 0.065-0.354 0.137-0.527 0.202-0.195 0.094-0.39 0.181-0.578 0.267-0.166 0.094-0.34 0.159-0.499 0.246-0.202 0.116-0.412 0.231-0.607 0.361-0.144 0.079-0.282 0.159-0.412 0.246-0.318 0.195-0.621 0.419-0.925 0.657-0.014 0-0.022 0.014-0.036 0.022-0.318 0.26-0.629 0.513-0.925 0.795-0.051 0.058-0.108 0.116-0.159 0.166-0.231 0.224-0.462 0.455-0.679 0.694-0.079 0.094-0.152 0.173-0.224 0.267-0.181 0.217-0.368 0.441-0.535 0.665-0.087 0.123-0.159 0.231-0.238 0.34-0.152 0.217-0.296 0.441-0.434 0.657-0.087 0.144-0.166 0.282-0.246 0.419-0.123 0.21-0.231 0.419-0.34 0.629-0.079 0.166-0.159 0.325-0.238 0.491-0.087 0.195-0.166 0.405-0.246 0.6-0.079 0.188-0.152 0.376-0.217 0.571-0.072 0.188-0.123 0.383-0.181 0.571-0.065 0.202-0.123 0.419-0.173 0.621-0.007 0.043-0.022 0.087-0.029 0.123-5.469 23.308-8.237 47.367-8.237 71.499 0 24.124 2.767 48.176 8.237 71.491 0.007 0.051 0.029 0.101 0.043 0.152 0.072 0.289 0.159 0.571 0.246 0.845 0.051 0.152 0.094 0.311 0.152 0.455 0.094 0.282 0.21 0.535 0.318 0.795 0.072 0.159 0.13 0.318 0.195 0.462 0.116 0.238 0.246 0.47 0.376 0.708 0.087 0.159 0.166 0.318 0.26 0.477 0.13 0.21 0.267 0.419 0.405 0.614 0.116 0.159 0.217 0.325 0.34 0.484 0.137 0.195 0.296 0.376 0.448 0.556 0.123 0.152 0.246 0.303 0.383 0.455 0.166 0.188 0.347 0.354 0.527 0.535 0.13 0.13 0.253 0.267 0.39 0.39 0.202 0.181 0.426 0.354 0.636 0.535 0.123 0.087 0.231 0.188 0.354 0.282 0.246 0.188 0.499 0.354 0.751 0.527 0.108 0.072 0.21 0.137 0.311 0.21 0.275 0.159 0.556 0.318 0.845 0.462 0.101 0.051 0.195 0.108 0.303 0.159 0.275 0.144 0.571 0.26 0.86 0.376 0.116 0.043 0.231 0.101 0.354 0.144 0.267 0.101 0.535 0.188 0.802 0.267 0.159 0.051 0.311 0.101 0.47 0.137 0.231 0.072 0.462 0.108 0.701 0.159 0.217 0.043 0.426 0.094 0.636 0.123 0.188 0.036 0.383 0.051 0.578 0.079 0.267 0.029 0.52 0.058 0.788 0.065 0.159 0.007 0.332 0.007 0.506 0.007 0.289 0.007 0.578 0.007 0.867 0 0.051 0 0.101 0 0.144 0 1.575-0.087 3.121-0.13 4.588-0.13 44.925 0 81.469 36.537 81.469 81.455 0 16.119-4.703 31.703-13.597 45.062-0.029 0.051-0.051 0.101-0.079 0.137-0.152 0.238-0.296 0.484-0.433 0.73-0.079 0.159-0.173 0.303-0.253 0.455-0.13 0.238-0.238 0.484-0.34 0.73-0.079 0.181-0.159 0.347-0.231 0.527-0.087 0.21-0.152 0.441-0.231 0.657-0.072 0.21-0.144 0.419-0.202 0.621-0.058 0.188-0.094 0.39-0.144 0.578-0.058 0.238-0.116 0.477-0.159 0.715-0.029 0.181-0.051 0.361-0.072 0.535-0.036 0.26-0.072 0.52-0.094 0.766-0.007 0.188-0.007 0.368-0.014 0.549-0.007 0.26-0.022 0.506-0.022 0.751 0.007 0.21 0.022 0.405 0.036 0.607 0.014 0.224 0.022 0.455 0.051 0.672 0.022 0.238 0.072 0.462 0.108 0.694 0.029 0.195 0.051 0.39 0.101 0.585 0.051 0.253 0.123 0.499 0.181 0.737 0.043 0.173 0.087 0.347 0.137 0.513 0.079 0.246 0.173 0.499 0.267 0.737 0.058 0.166 0.123 0.34 0.181 0.506 0.101 0.217 0.21 0.448 0.318 0.665 0.087 0.181 0.166 0.361 0.26 0.542 0.108 0.188 0.224 0.376 0.34 0.564 0.123 0.195 0.238 0.397 0.368 0.585 0.108 0.159 0.224 0.303 0.34 0.455 0.159 0.217 0.311 0.426 0.484 0.636 0.116 0.13 0.231 0.26 0.347 0.39 0.188 0.21 0.383 0.419 0.585 0.614 0.036 0.036 0.065 0.079 0.108 0.123 35.417 33.799 78.789 59.072 125.433 73.095 0.108 0.036 0.21 0.051 0.311 0.079 0.253 0.065 0.513 0.137 0.766 0.188 0.195 0.036 0.376 0.079 0.571 0.108 0.253 0.036 0.506 0.079 0.759 0.108 0.202 0.022 0.405 0.036 0.6 0.051 0.238 0.022 0.47 0.029 0.708 0.029 0.217 0 0.441 0 0.657-0.007 0.21 0 0.426-0.022 0.643-0.029 0.224-0.014 0.455-0.051 0.686-0.079 0.202-0.022 0.405-0.058 0.6-0.087 0.231-0.043 0.455-0.094 0.686-0.144 0.195-0.051 0.39-0.101 0.585-0.159 0.224-0.058 0.448-0.13 0.665-0.195 0.195-0.072 0.397-0.144 0.592-0.217 0.202-0.079 0.405-0.159 0.6-0.253 0.21-0.101 0.405-0.188 0.607-0.289 0.181-0.101 0.361-0.188 0.535-0.289 0.21-0.123 0.412-0.246 0.607-0.368 0.159-0.108 0.325-0.217 0.484-0.325 0.195-0.137 0.39-0.282 0.585-0.426 0.152-0.123 0.303-0.246 0.455-0.368 0.181-0.159 0.361-0.318 0.535-0.484 0.152-0.145 0.296-0.289 0.448-0.441 0.152-0.159 0.311-0.325 0.455-0.499 0.152-0.166 0.296-0.347 0.441-0.527 0.123-0.166 0.246-0.325 0.368-0.499 0.152-0.195 0.289-0.419 0.426-0.621 0.101-0.166 0.195-0.325 0.303-0.499 0.13-0.231 0.253-0.462 0.368-0.708 0.043-0.087 0.108-0.173 0.152-0.289 6.503-13.8 16.711-25.475 29.55-33.791 13.157-8.518 28.445-13.019 44.195-13.019 15.765 0 31.053 4.501 44.21 13.019 12.832 8.316 23.041 19.992 29.543 33.791 0.051 0.108 0.108 0.195 0.152 0.296 0.123 0.231 0.238 0.462 0.368 0.694 0.101 0.166 0.21 0.34 0.311 0.499 0.13 0.21 0.267 0.419 0.419 0.621 0.123 0.166 0.238 0.34 0.376 0.499 0.144 0.181 0.282 0.354 0.441 0.527 0.144 0.166 0.303 0.34 0.455 0.506 0.144 0.152 0.282 0.289 0.441 0.426 0.173 0.166 0.361 0.325 0.535 0.484 0.144 0.13 0.296 0.246 0.441 0.354 0.195 0.159 0.397 0.303 0.6 0.448 0.152 0.101 0.318 0.21 0.47 0.303 0.21 0.13 0.419 0.26 0.629 0.376 0.166 0.101 0.347 0.188 0.52 0.282 0.202 0.108 0.419 0.195 0.621 0.296 0.195 0.094 0.397 0.166 0.592 0.253 0.195 0.079 0.397 0.152 0.607 0.217 0.21 0.065 0.426 0.137 0.643 0.195 0.202 0.058 0.405 0.108 0.6 0.159 0.224 0.051 0.455 0.101 0.694 0.144 0.202 0.029 0.405 0.065 0.6 0.087 0.224 0.036 0.455 0.058 0.694 0.079 0.21 0.007 0.426 0.029 0.643 0.043 0.21 0 0.433 0.007 0.65 0 0.238 0 0.477-0.007 0.701-0.029 0.21-0.007 0.419-0.029 0.614-0.051 0.246-0.029 0.499-0.072 0.751-0.108 0.188-0.029 0.383-0.072 0.564-0.108 0.26-0.051 0.52-0.123 0.766-0.188 0.108-0.022 0.217-0.043 0.318-0.079 47.02-14.132 90.688-39.687 126.271-73.912 0.014-0.007 0.022-0.029 0.043-0.036 0.26-0.253 0.484-0.506 0.715-0.766 0.072-0.079 0.159-0.159 0.217-0.238 0.217-0.246 0.405-0.506 0.6-0.759 0.079-0.108 0.152-0.217 0.238-0.325 0.137-0.21 0.275-0.441 0.405-0.657 0.101-0.166 0.21-0.325 0.303-0.499 0.087-0.159 0.152-0.318 0.224-0.484 0.123-0.224 0.238-0.462 0.347-0.715 0.051-0.101 0.072-0.202 0.116-0.303 0.123-0.303 0.231-0.614 0.347-0.925 0.022-0.087 0.029-0.166 0.072-0.26 0.087-0.325 0.173-0.665 0.253-1.004 0.043-0.166 0.065-0.34 0.087-0.506 0.036-0.26 0.101-0.506 0.123-0.766 0.036-0.325 0.058-0.65 0.065-0.983 0.014-0.101 0.022-0.21 0.036-0.311 0-0.405-0.014-0.802-0.043-1.207 0-0.029 0-0.058 0-0.087-0.029-0.368-0.079-0.737-0.144-1.105-0.007-0.058-0.022-0.13-0.029-0.195-0.051-0.289-0.123-0.578-0.188-0.853-0.036-0.152-0.058-0.303-0.101-0.448-0.058-0.195-0.137-0.405-0.195-0.607-0.079-0.224-0.144-0.455-0.224-0.672-0.051-0.144-0.137-0.282-0.188-0.419-0.123-0.282-0.238-0.556-0.383-0.838-0.058-0.108-0.116-0.217-0.173-0.325-0.152-0.289-0.318-0.578-0.491-0.853-0.022-0.022-0.022-0.036-0.043-0.058-8.605-13.207-13.157-28.56-13.157-44.405 0-44.918 36.544-81.455 81.455-81.455 1.062 0 2.196 0.014 3.475 0.079 0.029 0 0.051 0 0.072 0 0.289 0.007 0.564 0 0.845-0.007 0.181 0 0.376 0 0.564-0.007 0.173-0.007 0.347-0.036 0.513-0.058 0.296-0.029 0.578-0.058 0.86-0.101 0.014 0 0.022-0.007 0.036-0.007 3.995-0.686 7.391-3.114 9.393-6.495 0.217-0.383 0.441-0.773 0.621-1.185 0.014-0.036 0.014-0.065 0.036-0.101 0.166-0.376 0.332-0.766 0.462-1.163 0.022-0.058 0.043-0.13 0.065-0.188 0.123-0.368 0.224-0.737 0.318-1.113 0.007-0.022 0.007-0.036 0.007-0.058 5.462-23.279 8.229-47.317 8.229-71.419-0.014-24.124-2.782-48.155-8.244-71.441z"  horiz-adv-x="1024" />

    
    <glyph glyph-name="bianji" unicode="&#58937;" d="M238.03586 725.464999c-47.958268 0-87.172385-38.969547-87.172385-87.172385l0-525.325493c0-47.959292 39.214117-86.927815 87.172385-86.927815l525.570063 0c47.959292 0 86.928838 38.968523 86.928838 86.927815L850.534761 458.191746l90.184999 87.172385 0-464.36612c0-80.18218-67.949578-145.132448-148.132782-145.132448L206.067774-64.134437c-80.183204 0-145.132448 64.950268-145.132448 145.132448L60.935326 661.271978c0 80.18218 64.949244 154.12117 145.132448 154.12117L670.432871 815.393147l-86.926792-89.929172L238.03586 725.463975zM559.524898 298.569282l-194.83443-55.203276 55.703673 193.591113L559.524898 298.569282zM579.016835 318.047916 439.628204 456.191182l306.244846 304.242236 139.387607-138.130987L579.016835 318.047916zM948.208315 684.750715l-41.715077-41.469484L767.107677 781.669068l41.714054 41.470507c15.490809 15.233959 39.714514 15.990183 53.958936 1.743714l87.173408-86.428442C964.198497 724.220658 963.442274 699.985698 948.208315 684.750715z"  horiz-adv-x="1024" />

    
    <glyph glyph-name="2yanzhengma" unicode="&#59508;" d="M882.036364 758.690909c-9.309091 0-18.618182 0-25.6 0l0 0C633.018182 758.690909 535.272727 856.436364 535.272727 856.436364l-23.272727 23.272727-23.272727-23.272727c0 0-97.745455-100.072727-323.490909-100.072727-9.309091 0-16.290909 0-25.6 0l-30.254545 0 0-449.163636c0-116.363636 39.563636-288.581818 390.981818-418.909091l11.636364-4.654545 11.636364 4.654545c351.418182 130.327273 390.981818 302.545455 390.981818 418.909091L914.618182 758.690909 882.036364 758.690909 882.036364 758.690909zM868.072727 311.854545c0-65.163636 0-239.709091-356.072727-372.363636C155.927273 72.145455 155.927273 244.363636 155.927273 311.854545L155.927273 709.818182C160.581818 709.818182 162.909091 709.818182 167.563636 709.818182 370.036364 709.818182 477.090909 784.290909 512 814.545455 546.909091 784.290909 653.963636 709.818182 856.436364 709.818182c2.327273 0 6.981818 0 9.309091 0L868.072727 311.854545 868.072727 311.854545zM868.072727 311.854545M444.509091 323.490909l-123.345455 93.090909-46.545455-37.236364 202.472727-183.854545c93.090909 202.472727 272.290909 356.072727 272.290909 356.072727l-20.945455 23.272727C584.145455 500.363636 444.509091 323.490909 444.509091 323.490909L444.509091 323.490909zM444.509091 323.490909"  horiz-adv-x="1024" />

    
    <glyph glyph-name="yue01" unicode="&#58928;" d="M511.999488 831.978894c-247.27171 0-447.724091-200.452381-447.724091-447.724091s200.452381-447.724091 447.724091-447.724091 447.724091 200.453405 447.724091 447.724091S759.271198 831.978894 511.999488 831.978894zM379.992989 639.579933c32.745798 27.629267 105.400538-30.699186 130.983193-28.652574 25.582655-2.046612 98.237395 56.281841 130.983193 28.652574s-39.653115-90.786703-39.653115-90.786703L419.629731 548.79323C419.629731 548.79323 347.24719 611.950665 379.992989 639.579933zM609.213577 516.047432c0-9.05012-7.322779-16.372899-16.372899-16.372899l-163.728992 0c-9.05012 0-16.372899 7.322779-16.372899 16.372899 0 9.05012 7.322779 16.372899 16.372899 16.372899l163.728992 0C601.890798 532.420331 609.213577 525.097552 609.213577 516.047432zM510.976182 123.449869c-126.60242 0-229.220588-11.416004-229.220588 95.67913 0 79.626525 56.761772 205.01428 137.874137 264.173658l182.676529 0c81.128739-59.159378 137.89051-184.547133 137.89051-264.173658C740.196771 112.032842 637.578602 123.449869 510.976182 123.449869zM513.491469 363.51648c7.241938 0 12.892635-2.263553 16.987906-6.766101 4.094248-4.501524 6.158257-10.979052 6.158257-19.408025l45.447075 0c0 14.20656-4.839215 25.6461-14.482853 34.387181-9.643638 8.741082-22.942525 14.086833-39.860846 16.060791L527.741008 412.28009l-23.452131 0 0-24.032346c-17.698081-1.443885-31.707143-6.237051-42.061978-14.400988-10.354835-8.162914-15.532765-18.58938-15.532765-31.253818 0-13.967106 5.110391-24.708751 15.362896-32.218796 10.253528-7.514137 26.158776-14.233166 47.713698-20.156062 9.91379-3.731998 16.784268-7.465019 20.608364-11.222599 3.822049-3.75451 5.750981-8.860808 5.750981-15.313777 0-6.309706-1.860371-11.342326-5.649674-15.145955-3.789303-3.781116-9.644661-5.685489-17.630542-5.685489-8.593725 0-15.498996 2.143826-20.608364 6.381337-5.110391 4.239558-7.68196 11.342326-7.68196 21.288862L440.229908 270.520459l-0.338714-0.579191c-0.440022-16.156982 5.110391-28.414143 16.649192-36.771485 11.538801-8.354272 26.39516-13.242606 44.497447-14.688537l0-22.419616 23.61893 0 0 22.539342c17.700127 1.444908 31.641651 6.069229 41.826618 13.942547 10.18599 7.875365 15.294334 18.325367 15.294334 31.375591 0 13.896498-5.245468 24.77936-15.70161 32.679283-10.456143 7.897877-26.15673 14.56881-47.070039 20.034289-10.455119 4.164856-17.528212 8.04114-21.183462 11.606339-3.653203 3.563152-5.480828 8.308223-5.514597 14.20656 0 6.382361 1.658779 11.488659 4.940522 15.316847C500.532319 361.589594 505.946632 363.51648 513.491469 363.51648z"  horiz-adv-x="1024" />

    
    <glyph glyph-name="fenxiang2" unicode="&#58931;" d="M1014.88968 484.213523l-364.412811 400.854093c-14.576512 14.576512-36.441281 14.576512-51.017794 0C584.882562 870.491103 584.882562 863.202847 584.882562 848.626335l0-211.359431c-298.818505 0-583.060498-247.800712-583.060498-546.619217 0-80.170819 36.441281-182.206406 72.882562-218.647687 43.729537 225.935943 269.66548 400.854093 510.177936 400.854093 0-21.864769 0-218.647687 0-218.647687 0-7.288256 0-14.576512 7.288256-29.153025 14.576512-14.576512 43.729537-7.288256 51.017794 0l364.412811 393.565836C1022.177936 433.19573 1022.177936 447.772242 1022.177936 455.060498 1022.177936 462.348754 1022.177936 476.925267 1014.88968 484.213523z"  horiz-adv-x="1024" />

    
    <glyph glyph-name="iconfontxinshouliyu" unicode="&#58895;" d="M457.210651 461.771271 289.129538 461.771271c-8.970302 0-16.243963-4.937452-16.243963-11.030218l0-95.448886c0-6.091742 7.27366-11.029194 16.243963-11.029194l168.081113 0c8.970302 0 16.243963 4.937452 16.243963 11.029194l0 95.448886C473.454614 456.833819 466.180953 461.771271 457.210651 461.771271zM625.415584 577.319937c0 0 12.535501 14.326287-5.116531 24.559349 0 0-16.884552 15.861246-30.187533 0 0 0-15.349593-13.558807-33.513278-79.050404C556.598242 522.828882 612.624257 554.807201 625.415584 577.319937zM458.469318 306.399621 328.802096 306.399621c-8.275477 0-14.984273-6.939039-14.984273-15.497972l0-160.363338c0-8.55791 6.708795-15.497972 14.984273-15.497972l129.667222 0c8.276501 0 14.985296 6.939039 14.985296 15.497972L473.454614 290.901649C473.454614 299.460582 466.745818 306.399621 458.469318 306.399621zM431.593204 636.263397c-18.241456 23.685445-41.394782 0-41.394782 0-24.204262-15.278985-7.014764-36.671201-7.014764-36.671201 17.539468-33.617655 94.364181-74.205049 94.364181-74.205049C452.641589 623.181451 431.593204 636.263397 431.593204 636.263397zM511.999488 832.354448c-246.99951 0-447.230857-200.231347-447.230857-447.230857 0-246.998487 200.23237-447.231881 447.230857-447.231881 246.99951 0 447.229834 200.233394 447.229834 447.231881C959.229323 632.123101 758.998999 832.354448 511.999488 832.354448zM778.655687 289.08835l-23.451108 0-0.170892-193.83159c0 0 0.341784-16.883529-17.736966-18.760273L291.305087 76.496487c0 0-16.543791 0.682545-18.590404 16.884552L272.714683 288.8315l-23.876804 0.170892c0 0-13.814634 1.36509-16.71366 16.543791L232.12422 484.965529c0 0 4.093225 13.302981 17.225313 15.861246l173.450401 0.001023c0 0-112.052029 59.863413-85.957721 137.123031 0 0 20.466124 42.467207 61.910025 54.746882 0 0 36.839023 8.698103 61.910025-22.001083 0 0 26.605961-13.814634 56.793494-116.145254 0 0 22.512736 73.678046 57.305147 93.120864 0 0 31.722492 20.466124 69.073168-6.65149 0 0 57.8168-35.304064 15.349593-93.632517 0 0-23.536043-32.745798-49.630351-46.560432l167.822217 0c0 0 15.521508-1.619894 17.653055-18.078751l0-173.791162C795.02961 308.957887 796.478612 292.158269 778.655687 289.08835zM699.969581 306.399621 570.302359 306.399621c-8.275477 0-14.984273-6.939039-14.984273-15.497972l0-160.363338c0-8.55791 6.708795-15.497972 14.984273-15.497972l129.667222 0c8.276501 0 14.985296 6.939039 14.985296 15.497972L714.954877 290.901649C714.954877 299.460582 708.246081 306.399621 699.969581 306.399621zM739.644185 461.771271 571.562049 461.771271c-8.970302 0-16.242939-4.937452-16.242939-11.030218l0-95.448886c0-6.091742 7.272637-11.029194 16.242939-11.029194l168.082136 0c8.970302 0 16.242939 4.937452 16.242939 11.029194l0 95.448886C755.887125 456.833819 748.613464 461.771271 739.644185 461.771271z"  horiz-adv-x="1024" />

    
    <glyph glyph-name="huodong" unicode="&#58933;" d="M480.544236 804.608001c-24.896 15.072-106.303999 57.631999-154.719998 84.607999-42.303999 23.52-55.135999-26.976-59.167999-61.567999-4.032-34.688-4.032-79.551999 40.319999-79.551999l162.815998 0c44.351999 0 44.351999 35.904 10.752 56.511999zM0.000242 628.960004l0-101.663999c-0.064-37.632 12.544-56.607999 62.783999-56.607999l371.231995 0 0 209.343997-372.191995 0c-50.847999 0.032-61.823999-16.736-61.823999-51.071999zM42.432241-4.927988c0.48-78.367999 46.207999-123.071998 143.871998-123.071998l245.279997 0 0 521.215993-389.151995 0c0 0-0.576-319.807996 0-398.143995zM1024.000229 624.640004c0 34.336-14.944 55.423999-65.759999 55.423999l-365.951995 0 0-209.343997 368.831995 0c50.239999 0 62.911999 17.376 62.879999 55.007999-0.16 34.272-0.096 64.607999 0 98.911999zM767.360232 828.384001c-4.032 34.592-16.864 85.087999-59.199999 61.567999-48.479999-26.976-129.823998-69.535999-154.719998-84.703999-33.664-20.512-33.664-56.415999 10.784-56.415999l162.783998 0c44.383999 0 44.383999 44.895999 40.351999 79.551999zM592.288234 393.216007l0-521.215993 237.791997 0c97.599999 0 141.567998 49.055999 142.111998 127.359998 0.576 78.367999-0.16 393.855995-0.16 393.855995l-379.743995 0z"  horiz-adv-x="1025" />

    
    <glyph glyph-name="tianjia2" unicode="&#59136;" d="M544 832C279.04 832 64 616.96 64 352 64 87.04 279.04-128 544-128c264.96 0 480 215.04 480 480C1024 616.96 808.96 832 544 832zM800 320 576 320l0-224C576 78.08 561.92 64 544 64 526.08 64 512 78.08 512 96L512 320 288 320C270.08 320 256 334.08 256 352 256 369.92 270.08 384 288 384L512 384 512 608C512 625.92 526.08 640 544 640 561.92 640 576 625.92 576 608L576 384l224 0C817.92 384 832 369.92 832 352 832 334.08 817.92 320 800 320z"  horiz-adv-x="1024" />

    
    <glyph glyph-name="yduiwodedingdan" unicode="&#59055;" d="M842.918293 831.711811 181.08273 831.711811c-32.118512 0-58.395992-26.276457-58.395992-58.393945l0-778.632663c0-32.118512 26.27748-58.393945 58.401108-58.393945l661.830447 0c32.118512 0 58.393945 26.276457 58.393945 58.393945L901.312238 773.316843C901.312238 805.429215 875.035782 831.711811 842.918293 831.711811L842.918293 831.711811zM335.83835 626.935961l352.320231 0c16.129352 0 29.193903-13.065574 29.193903-29.195949 0-16.127306-13.065574-29.197996-29.193903-29.197996L335.83835 568.542017c-16.127306 0-29.199019 13.07069-29.199019 29.197996C306.640354 613.871411 319.711044 626.935961 335.83835 626.935961L335.83835 626.935961zM335.83835 435.480488l149.916405 0c16.130376 0 29.194926-13.066597 29.194926-29.193903 0-16.134469-13.06455-29.200042-29.194926-29.200042L335.83835 377.086543c-16.127306 0-29.199019 13.066597-29.199019 29.200042C306.640354 422.414915 319.711044 435.480488 335.83835 435.480488L335.83835 435.480488zM759.860622 331.656865 496.857627 68.017372c-17.10968-16.158005-44.678572-16.158005-61.793368 0l-2.217505 2.535753L303.563272 200.474127c-17.115819 16.791431-17.115819 44.677549 0 61.46898 16.794501 17.110703 44.678572 17.110703 61.793368-0.63445l100.44262-100.449783 232.586243 232.589312c16.796548 17.10968 44.675502 17.10968 61.474097 0C776.653077 376.334413 776.653077 348.765521 759.860622 331.656865L759.860622 331.656865zM759.860622 331.656865"  horiz-adv-x="1024" />

    
    <glyph glyph-name="gerenzhongxinwodedingdan1" unicode="&#58916;" d="M768.672228 709.71048l-93.086906 0 0-11.636247c0-38.555053-31.24912-69.815436-69.815436-69.815436L419.596073 628.258797c-38.555053 0-69.815436 31.260383-69.815436 69.815436l0 11.636247-93.086906 0c-38.555053 0-69.815436-31.260383-69.815436-69.815436l0-558.510175c0-38.566316 31.259359-69.815436 69.815436-69.815436l511.978497 0c38.566316 0 69.815436 31.24912 69.815436 69.815436L838.487664 639.895044C838.487664 678.450097 807.238544 709.71048 768.672228 709.71048zM675.585321 197.743247 349.780637 197.743247c-12.851684 0-23.272495 10.408523-23.272495 23.272495 0 12.840421 10.419786 23.272495 23.272495 23.272495l325.804684 0c12.840421 0 23.272495-10.432074 23.272495-23.272495C698.857816 208.15177 688.425742 197.743247 675.585321 197.743247zM675.585321 337.374118 349.780637 337.374118c-12.851684 0-23.272495 10.408523-23.272495 23.271471 0 12.840421 10.419786 23.261231 23.272495 23.261231l325.804684 0c12.840421 0 23.272495-10.42081 23.272495-23.261231C698.857816 347.782641 688.425742 337.374118 675.585321 337.374118zM675.585321 476.992702 349.780637 476.992702c-12.851684 0-23.272495 10.419786-23.272495 23.271471s10.419786 23.271471 23.272495 23.271471l325.804684 0c12.840421 0 23.272495-10.419786 23.272495-23.271471S688.425742 476.992702 675.585321 476.992702zM431.23232 663.166515l162.902342 0c19.294422 0 34.907718 15.635823 34.907718 34.907718l0 23.272495c0 19.283158-15.613296 34.907718-34.907718 34.907718L431.23232 756.254445c-19.283158 0-34.907718-15.62456-34.907718-34.907718l0-23.272495C396.324602 678.802338 411.949162 663.166515 431.23232 663.166515z"  horiz-adv-x="1024" />

    
    <glyph glyph-name="wodekefu" unicode="&#59019;" d="M884.165 444.506c-2.494 203.504-168.046 367.753-372.161 367.753s-369.666-164.249-372.165-367.753c-34.163-27.314-56.096-69.25-56.096-116.37 0-82.254 66.697-148.969 148.96-148.969 35.899 0 68.818 12.726 94.534 33.857l-70.18 261.923c-7.949 1.294-16.045 2.155-24.353 2.155-5.474 0-10.855-0.339-16.183-0.926 17.954 147.35 143.268 261.601 295.488 261.601 152.199 0 277.532-114.25 295.481-261.601-5.306 0.583-10.705 0.926-16.18 0.926-8.305 0-16.421-0.863-24.375-2.155l-70.159-261.801c19.847-16.295 43.981-27.559 70.459-31.868-35.138-37.751-79.825-66.511-130.378-82.068l-6.164-6.156c-15.77 28.99-46.122 48.892-81.442 48.892-51.427 0-93.102-41.674-93.102-93.118 0-51.431 41.673-93.104 93.102-93.104 42.211 0 77.419 28.27 88.852 66.758 102.752 25.189 188.829 92.829 238.272 183.482 38.595 26.917 63.899 71.562 63.899 122.175-0.002 47.108-21.955 89.058-56.102 116.371z"  horiz-adv-x="1024" />

    
    <glyph glyph-name="xitongshezhi1" unicode="&#59065;" d="M916.04992 516.8384l0-0.09728c-89.44128 52.41344-118.33344 171.74528-64.64 266.59328L683.88864 881.57696c-16.384-29.312-40.16128-54.88128-70.36928-73.24672-91.10016-55.39328-206.40256-24.77056-257.47456 68.41344l-170.46528-103.68c16-28.60544 24.92928-62.08 24.35072-97.95072-1.56672-107.776-87.808-196.54144-192.67072-198.36928l-3.00544-201.94816c32.32256 0.73728 64.92672-7.10656 94.62272-24.51456 89.28256-52.352 118.24128-171.36128 64.86016-266.112l167.552-98.21184c16.384 29.12256 40.064 54.46656 70.144 72.77056 90.81344 55.22944 205.63456 24.96 256.93184-67.52256l170.496 103.68c-15.68256 28.44672-24.38656 61.56288-23.90528 97.08544 1.63328 107.58656 87.55712 196.29056 192.19456 198.36928l3.00544 201.92256C978.06336 491.62752 945.5872 499.46624 916.04992 516.8384zM615.43936 204.47232l0 0.03584c-98.85184-57.22112-225.18272-23.33184-282.20928 75.67872-57.02656 99.00544-23.07072 225.62816 75.74528 282.84416 98.84672 57.216 225.18272 23.36256 282.20416-75.648C748.20608 388.37248 714.25536 261.71904 615.43936 204.47232z"  horiz-adv-x="1024" />

    
    <glyph glyph-name="kefu" unicode="&#58970;" d="M515.530406 125.768681c4.366448 0 8.812713 0.267083 13.284561 0.800225 42.889833 5.14723 79.310324 35.124985 92.75452 76.437903 1.01205 3.093455-0.452301 6.40078-3.40761 7.760754-2.928702 1.359974-6.469342 0.186242-8.119935-2.586918-0.159636-0.267083-17.198707-27.79095-83.542718-36.752042-9.930163-1.333368-19.594267-2.02717-28.752858-2.02717-46.483684 0.026606-67.196425 17.548678-67.382667 17.709337-2.342348 2.080382-5.910617 2.133593-8.306176 0.106424-2.422166-2.02717-2.981914-5.547343-1.331321-8.241708C440.960037 146.17136 477.273081 125.768681 515.530406 125.768681zM872.252901 536.921855c-0.586354 0-1.118474-0.106424-1.677199-0.106424C831.705416 705.106322 683.175591 830.644503 505.09473 830.644503c-182.979428 0-334.916862-132.473127-368.595916-307.724547-32.745798-5.894244-57.665351-34.671661-57.665351-69.477374l0-139.300626c0-39.045271 31.309076-70.703295 69.965491-70.703295 21.804608 0 41.052998 10.29446 53.858652 26.110681 30.934546-81.82254 93.922113-147.803277 173.627433-182.610014 0.191358 0.415462 1.700735 3.348258 3.514033 5.685489 1.257643 1.620917 2.660596 2.952238 3.868097 2.952238 1.251503 0 2.396583-0.453325 3.381004-1.147126-18.450211 13.735839-85.086887 84.33271-99.516528 182.853561-6.336312 43.366693 26.143427 85.932138 63.975057 92.973508 60.727083 11.308557 121.134895 24.189935 181.861978 35.284621 38.603203 7.04137 64.987107 28.217668 81.120552 63.475683 3.780093 8.241708 9.238408 24.910343 11.741415 48.940642 0.665149 3.573385 3.593851 6.320962 7.348362 6.320962 2.503007 0 4.632507-1.280156 6.043646-3.120061l1.677199 1.039679c23.934109-34.751478 71.403237-111.695918 78.218456-192.827727 7.827269-92.76066 3.460822-156.289556-67.542302-221.285872-0.079818-0.079818-0.186242-0.186242-0.292666-0.267083-0.985444-1.066285-1.570775-2.453888-1.570775-3.973498 0-2.000564 1.065262-3.707438 2.609431-4.747117 0.585331-0.240477 1.171686-0.559748 1.757017-0.800225 0.478907-0.106424 0.931209-0.267083 1.411139-0.267083 0.479931 0 0.905626 0.159636 1.331321 0.267083 1.01205 0.533143 1.969864 1.147126 2.955308 1.680269 71.802326 39.552831 126.884852 105.615433 152.336524 185.066973 10.302647-15.308661 26.436092-26.323529 45.178969-30.163997-30.057573-136.713708-151.990646-222.272339-303.050084-235.261165-9.052167 22.456455-31.335682 38.405705-57.505715 38.405705-34.183544 0-61.898769-27.070542-61.898769-60.435441s27.714202-60.408835 61.898769-60.408835c27.554566 0 50.637284 17.709337 58.650795 42.032302 174.859493 14.21577 315.02993 118.150934 344.289324 279.640931 25.850761 10.80202 44.007283 36.165688 44.007283 65.769936L944.083879 465.57797C944.081833 504.970142 911.920342 536.921855 872.252901 536.921855zM807.744701 496.435769C762.140037 619.973386 643.960451 708.226383 504.935094 708.226383c-138.440026 0-256.192893-87.505983-302.224276-210.243375-2.289136 2.800789-4.978385 5.200442-7.614421 7.627724C221.160006 655.179212 349.882716 768.9023 505.09473 768.9023c154.467047 0 282.789645-112.602567 309.705668-261.131369C812.137755 504.196523 809.68796 500.462478 807.744701 496.435769zM376.292202 86.936257c-0.00307 0.001023-0.005117 0.002047-0.008186 0.00307C376.255363 86.874859 376.25434 86.866672 376.292202 86.936257z"  horiz-adv-x="1024" />

    
    <glyph glyph-name="dianpu-copy" unicode="&#58949;" d="M1126.4 471.040c0-76.8-64-140.8-140.8-140.8s-140.8 64-140.8 140.8v0 0 0c0-76.8-64-140.8-140.8-140.8s-140.8 64-140.8 140.8v0 0 0 0c0-76.8-64-140.8-140.8-140.8s-140.8 64-140.8 140.8v0 0 0 0c0-76.8-64-140.8-140.8-140.8-76.8 0-140.8 64-140.8 140.8v0 0 0l99.84 266.24h929.28l97.28-266.24zM949.76 791.040h-773.12c-28.16 0-53.76 23.040-53.76 53.76 0 28.16 23.040 51.2 53.76 51.2h773.12c28.16 0 53.76-23.040 53.76-53.76 0-28.16-23.040-51.2-53.76-51.2v0zM158.72 279.040v0c5.12 0 10.24 0 15.36 2.56 0 0 2.56 0 2.56 0 2.56 0 5.12 0 7.68 2.56 10.24 2.56 17.92 5.12 28.16 7.68v0 0-261.12h704v261.12c10.24-2.56 17.92-5.12 28.16-7.68 2.56 0 5.12 0 7.68-2.56 0 0 2.56 0 2.56 0s10.24-2.56 15.36-2.56v0c5.12 0 12.8 0 17.92 0 12.8 0 23.040 0 35.84 2.56v-355.84c0-28.16-23.040-53.76-53.76-53.76l-811.52-0c-28.16 0-53.76 23.040-53.76 53.76l-0 355.84c10.24-2.56 23.040-2.56 35.84-2.56 5.12-0 12.8-0 17.92-0v0zM158.72 279.040z"  horiz-adv-x="1127" />

    
    <glyph glyph-name="fenxiang" unicode="&#58896;" d="M748.33973 768.018164 272.978185 768.018164c-80.101339 0-145.035234-64.934918-145.035234-145.035234l0-475.361545c0-80.101339 64.934918-145.035234 145.035234-145.035234l475.361545 0c80.101339 0 145.035234 64.934918 145.035234 145.035234L893.374964 622.98293C893.374964 703.084269 828.441069 768.018164 748.33973 768.018164zM578.372663 274.49498l0 101.470019c-210.822566 35.293831-322.509275-247.553119-322.509275-247.553119 0 438.249299 322.509275 411.890978 322.509275 411.890978L578.372663 642.876002l189.175547-184.189999L578.372663 274.49498z"  horiz-adv-x="1024" />

    
    <glyph glyph-name="mywallet" unicode="&#58930;" d="M582.4 345.6l0-70.4c0-19.2 19.2-38.4 38.4-38.4l140.8 0L761.6 384 620.8 384C601.6 384 582.4 364.8 582.4 345.6zM672 364.8c32 0 51.2-25.6 51.2-51.2S704 256 672 256C640 256 620.8 281.6 620.8 313.6S646.4 364.8 672 364.8zM262.4 556.8c0-6.4 0-6.4 6.4-12.8l0 0c0 0 0 0 0-6.4l0 0 0 0 0 0 0 0 0 0 0 0c0 0 0 0 6.4 0l0 0 6.4 0 307.2 0L588.8 633.6 294.4 633.6C275.2 633.6 256 614.4 256 595.2L262.4 556.8C262.4 563.2 262.4 556.8 262.4 556.8L262.4 556.8zM691.2 332.8l-38.4 0 0-38.4 38.4 0L691.2 332.8zM870.4 832 153.6 832C102.4 832 64 793.6 64 742.4l0-716.8C64-25.6 102.4-64 153.6-64l716.8 0c51.2 0 89.6 38.4 89.6 89.6L960 742.4C960 793.6 921.6 832 870.4 832zM800 166.4c0-38.4-32-70.4-70.4-70.4L294.4 96c-38.4 0-70.4 32-70.4 70.4L224 544 224 550.4 224 556.8 224 601.6c0 19.2 6.4 32 12.8 44.8l6.4 6.4C256 665.6 275.2 672 294.4 672L640 672l0-140.8 160 0L800 166.4zM294.4 492.8c-6.4 0-6.4 0-12.8 0l0 0c-6.4 0-6.4 0-12.8 6.4l0 0c0 0-6.4 0-6.4 6.4l0-332.8c0-19.2 19.2-38.4 38.4-38.4l428.8 0c19.2 0 38.4 19.2 38.4 38.4l0 38.4L620.8 211.2c-38.4 0-70.4 32-70.4 70.4l0 64c0 38.4 32 70.4 70.4 70.4l140.8 0L761.6 492.8l-128 0L294.4 492.8 294.4 492.8z"  horiz-adv-x="1024" />

    
    <glyph glyph-name="xitongshezhi2" unicode="&#59030;" d="M1017.377674 439.989175c-3.988848 22.373567-25.431206 44.900629-47.617507 49.979298l-16.45067 3.802606c-39.015595 11.780301-73.665767 37.860283-95.66685 75.9416-22.185278 38.356586-27.235294 81.920778-17.633612 121.807207l4.860704 15.611559c6.66991 21.719674-1.994424 51.633984-19.256576 66.345034 0 0-15.643282 13.20986-59.709917 38.699394-44.060495 25.457812-63.191204 32.410154-63.191204 32.410154-21.37789 7.726985-51.54291 0.37146-66.99688-16.32992l-11.594059-12.462846c-29.665647-28.045753-69.645197-45.215808-113.584941-45.215808-44.152593 0-84.258009 17.294898-113.954355 45.526893L385.393999 828.195731c-15.393595 16.669658-45.591361 24.056905-66.967204 16.325827 0 0-19.131733-6.915503-63.290465-32.405037-43.996027-25.490557-59.546188-38.639019-59.546188-38.639019-17.326621-14.71105-26.019607-44.500517-19.289322-66.313312l4.827959-15.769149c9.474792-39.853683 4.364401-83.325777-17.633612-121.653711-22.063505-38.235836-57.056484-64.380286-96.228645-76.030627L51.186288 490.032942c-22.090111-5.050016-43.564191-27.608801-47.553039-49.950645 0 0-3.613294-20.09978-3.613294-71.109548 0-51.012837 3.613294-71.019497 3.613294-71.019497 4.02057-22.434965 25.461905-44.933375 47.553039-50.105165l15.708773-3.492544c39.325657-11.713786 74.411757-37.95238 96.600105-76.343759 22.091134-38.327934 27.14115-81.892125 17.573237-121.779577l-4.767584-15.579837c-6.730285-21.686928 1.962701-51.601238 19.349697-66.309218 0 0 15.551184-13.21293 59.644425-38.702464 44.093241-25.551956 63.164598-32.411177 63.164598-32.411177 21.408589-7.726985 51.509141-0.311085 66.967204 16.269545l11.06194 11.902074c29.697369 28.355815 69.829392 45.617967 114.047476 45.617967 44.189432 0 84.387969-17.386996 114.210181-45.617967l0.027629 0 10.940167-11.902074c15.45397-16.58063 45.493124-23.99653 66.930365-16.269545 0 0 19.071358 6.979972 63.321164 32.411177 44.002167 25.489534 59.579957 38.702464 59.579957 38.702464 17.328667 14.70798 25.928532 44.496423 19.323091 66.309218l-4.860704 16.080234c-9.349949 39.761586-4.239558 83.139535 17.633612 121.279181 22.25077 38.452777 57.277518 64.569598 96.538707 76.343759l0 0.065492 15.705704 3.612271c22.187325 5.051039 43.62866 27.545356 47.615461 49.983391 0 0 3.613294 20.068058 3.613294 71.109548C1020.990968 419.921117 1017.377674 439.989175 1017.377674 439.989175zM510.507508 204.407716c-90.588181 0-164.067706 73.665767-164.067706 164.532287 0 90.741677 73.478502 164.342975 164.067706 164.342975 90.584088 0 163.970492-73.633021 163.970492-164.467819C674.478 277.947616 601.091596 204.407716 510.507508 204.407716z"  horiz-adv-x="1024" />

    
    <glyph glyph-name="fenxiang1" unicode="&#58950;" d="M865.043197 534.182464c-1.979074 4.678556-4.067642 9.29469-6.221702 13.873985-0.00307 0.00614-0.00614 0.01228-0.00921 0.01842-18.757203 39.871079-44.096311 75.934436-75.509764 107.345844-35.025725 35.024701-75.816756 62.525032-121.240295 81.737606-47.038316 19.895119-96.993055 29.982872-148.477636 29.982872-51.485605 0-101.441367-10.087753-148.480706-29.982872-4.967128-2.100848-9.867742-4.318352-14.722306-6.616698-0.137123-0.066515-0.277316-0.122797-0.412392-0.192382-39.379892-18.697851-75.019601-43.842531-106.10662-74.92955-35.025725-35.024701-62.528102-75.81471-81.740676-121.239272-19.896142-47.037293-29.984918-96.993055-29.984918-148.477636 0-51.486628 10.087753-101.44239 29.983895-148.481729 19.213597-45.424562 46.714951-86.215594 81.740676-121.240295 35.025725-35.025725 75.816756-62.526055 121.241318-81.738629 3.742231-1.583055 7.505951-3.096525 11.285021-4.555759 2.295276-1.51347 4.943592-2.52552 7.794523-2.913353 41.386596-14.945387 84.819804-22.514783 129.401162-22.514783 51.484581 0 101.43932 10.086729 148.477636 29.983895 45.424562 19.212574 86.214571 46.712905 121.240295 81.738629 35.025725 35.025725 62.527079 75.816756 81.739653 121.240295 19.896142 47.039339 29.984918 96.995101 29.984918 148.481729C895.028115 437.188386 884.939339 487.144148 865.043197 534.182464zM407.317311 386.609431c0 58.82578 47.859008 106.684788 106.684788 106.684788 58.839083 0 106.708324-47.859008 106.708324-106.684788 0-43.475164-26.140357-80.9558-63.526849-97.565083-1.992377-0.467651-3.858888-1.24434-5.553483-2.279926-11.707646-4.426823-24.388457-6.857175-37.627992-6.857175C455.176318 279.907247 407.317311 327.774441 407.317311 386.609431zM170.00851 385.703805c0 37.138852 5.858428 73.377194 17.129122 107.664092l229.381248-0.11461c-8.262174-7.559163-15.644305-16.062837-21.976524-25.338085L185.404152 283.513378C175.276491 316.176288 170.00851 350.533794 170.00851 385.703805zM653.442918 348.386898 834.540486 508.787074c14.851243-38.764885 22.617114-80.326467 22.617114-123.08327 0-33.147958-4.686742-65.571415-13.70207-96.53666l-222.449371 0.319272C636.077412 306.07421 647.346059 326.171943 653.442918 348.386898zM756.524644 628.641813c25.031093-25.03007 45.702901-53.252855 61.680804-83.734076L657.677359 402.727527c-3.648087 32.724309-18.262946 62.181201-40.079834 84.606956L617.597525 713.298911C669.449473 696.90043 716.96465 668.200784 756.524644 628.641813zM580.072887 722.870918c-0.213871-1.13894-0.337691-2.309602-0.337691-3.510964l0-204.01758c-0.88516 0.454348-1.777483 0.895393-2.673899 1.330298l-185.641047 190.32472c38.503942 14.622022 79.745229 22.274306 122.165364 22.274306C536.159748 729.271698 558.400285 727.098195 580.072887 722.870918zM270.641465 628.641813c25.104771 25.103748 53.420677 45.822628 84.005252 61.819974l155.429978-159.350265c-1.722224-0.046049-3.433192-0.130983-5.140067-0.237407l-302.847469 0.182149C218.825332 566.863794 241.858932 599.859279 270.641465 628.641813zM270.641465 142.76068c-30.187533 30.187533-54.05615 65.005526-70.963215 102.849436l170.053024 149.939941c-0.181125-2.958378-0.284479-5.937223-0.284479-8.939603 0-0.016373 0-0.032746 0-0.049119 0 0 0-0.001023 0-0.002047l-1.423419-312.254723C332.293617 91.032552 299.36874 114.033405 270.641465 142.76068zM405.827377 59.287547l1.048889 230.354412c9.955746-10.991332 21.577434-20.444635 34.458813-27.966958l195.057511-197.031469c-38.687114-14.781658-80.151481-22.51376-122.808-22.51376C476.411969 42.129772 440.141904 47.996386 405.827377 59.287547zM756.524644 142.76068c-24.919553-24.919553-53.000098-45.518706-83.324754-61.466933L514.06452 242.037754c18.58938 0.008186 36.368302 3.543709 52.705386 9.970072l263.36934-0.272199C813.116547 211.523787 788.333094 174.56913 756.524644 142.76068z"  horiz-adv-x="1024" />

    
    <glyph glyph-name="wodeqianbao1" unicode="&#58972;" d="M885.127627 480.53359c0 25.038256-9.026584 46.598294-26.820855 64.074318-17.680684 17.382902-39.450501 26.197662-64.702628 26.197662L221.591329 570.80557c-25.242917 0-47.01478-8.810666-64.724117-26.199709-17.770735-17.477047-26.780947-39.035038-26.780947-64.072271l0-386.18348c0-12.679787 2.605338-24.723078 7.739265-35.792181 5.009084-10.810207 11.917424-20.413935 20.560268-28.572756 8.617261-8.100492 18.654872-14.492062 29.757744-18.964934 11.231809-4.579295 23.285333-6.901177 35.827997-6.901177l572.043514 0c12.617365 0.023536 24.509207 2.390443 35.292807 7.014764 10.685363 4.544503 20.253276 11.070126 28.439726 19.396769l0.069585 0.071631c8.02886 8.251941 14.33652 17.953907 18.751063 28.838815l0.050142 0.125867c4.313236 10.847046 6.502088 22.536272 6.507204 34.740222L885.125581 254.994857 686.457846 254.994857c-13.759375 0-24.239054 2.388397-30.319539 6.919597-7.066953 5.254677-12.065803 10.868535-14.854313 16.685008l-0.213871 0.427742c-3.857864 7.568373-6.039553 16.641005-6.487761 26.966165 0.081864 14.152325 4.793166 25.255197 14.795984 34.909068 10.188037 9.82067 22.317285 14.594393 37.078477 14.594393l198.669782 0L885.126604 480.53359zM728.830909 728.94731l-1.6465 1.820462c-9.991562 11.050684-22.072715 20.111037-35.911908 26.931373l-1.191128 0.538259c-12.011568 4.965082-26.52512 7.933693-43.138496 8.826016-18.015306 0.958838-38.044478-4.336772-59.490929-15.761985-11.618619-5.990434-28.125571-14.616906-50.455135-26.371624-21.785166-11.471262-43.735084-22.901593-65.239863-33.973766l-0.234337-0.122797c-25.786293-13.715373-52.718689-27.723412-80.046081-41.633213l-73.624834-37.473473 473.29242 0L728.830909 728.94731zM661.245627 330.400245c-6.831592-6.714935-10.233062-14.976086-10.233062-24.787546 0-9.79304 3.40147-18.191314 10.233062-25.134447 6.833639-6.985088 15.231913-10.44898 25.213241-10.44898 9.967002 0 18.383696 3.463891 25.213241 10.44898 6.833639 6.943133 10.218736 15.341407 10.218736 25.134447 0 9.81146-3.38612 18.071587-10.218736 24.787546-6.829546 6.695492-15.245216 10.04375-25.213241 10.04375C676.476517 340.443995 668.078243 337.095737 661.245627 330.400245z"  horiz-adv-x="1024" />

    
    <glyph glyph-name="04_youhuihuodong" unicode="&#58932;" d="M963.29 554.41v-122.261H547.201V641.465c-10.345 1.035-20.345 2.206-28.88 3.649v0.38h-1.815l0.018-0.01h1.783v-0.397h-1.436l-0.01 0.01c-0.046-0.044-0.365-0.343-0.688-0.343-11.052-1.486-24.608-3.289-39.929-4.776v-207.856H60.142V621.884c0 13.613 11.025 24.642 24.627 24.642h57.918c1.266 0 2.508-0.091 3.727-0.281h149.013c-50.925 11.046-89.136 33.621-90.531 75.309-1.441 49.108 52.048 128.487 130.127 110.373 80.61-18.773 136.931-83.409 180.069-138.791C558.605 749.594 620.274 822.34 704.399 833.807c70.296 9.227 128.395-63.519 120.899-111.51-6.384-42.057-45.287-64.972-94.855-76.032h147.254a24.824 24.824 0 0 0 3.611 0.261h57.914c13.602 0 24.627-11.029 24.627-24.642v-62.242a24.73 24.73 0 0 0-0.559-5.232zM343.614 788.399c-38.903 15.881-61.692-1.154-78.088-29.211-8.923-15.84-18.516-36.908-4.291-52.398 37.425-39.888 140.094-36.948 208.954-29.528-32.474 42.02-72.393 88.96-126.575 111.137z m425.354-81.283c26.738 35.471-25.671 109.304-82 82.013-53.868-26.244-92.716-69.025-126.225-111.144 28.84-2.607 58.099-3.289 86.994-1.833 35.309 1.48 100.558 4.043 121.231 30.964zM479.08-66.949H123.238c-13.602 0-24.627 11.029-24.627 24.642v440.81H479.08v-465.452z m445.704 43.177c0-3.452-0.397-6.799-1.118-10.011v-8.524c0-13.613-11.024-24.642-24.626-24.642h-57.914c-0.069 0-0.139 0.003-0.203 0.003H544.352V398.503h380.432v-422.275z"  horiz-adv-x="1024" />

    
    <glyph glyph-name="dizhi" unicode="&#59329;" d="M171.6992 485.69856c21.1968 0 30.40256 9.20064 30.40256 32.39936 0.69632 32.40448 4.1984 78.30016 14.10048 108.60032 40.2944 121.99936 180.39808 219.29984 309.0944 215.00416 184.6016 0 297.8048-171.29984 297.8048-324.3008-5.00224-68.4032-18.40128-95.8976-36.80256-130.4064-63.69792-116.992-164.79744-226.29376-258.2016-318.6944-4.99712-4.89984-21.89824-11.29984-34.69824 1.39776-28.29824 26.10176-83.49696 74.7008-109.59872 102.90176-67.2 73.29792-104.704 129.69984-151.3984 224.90112-9.90208 16.19968-18.40128 26.79808-36.80256 18.29888-16.9984-6.2976-19.0976-22.59968-10.5984-42.30144 9.20064-20.39808 19.79904-40.19712 31.09888-59.89888 70.00064-119.90016 162.69824-220.6976 265.99936-313.00096 20.50048-17.59744 38.20032-17.59744 57.30304 0.70144 55.99744 52.1984 107.5968 107.19744 156.39552 165.69856 51.60448 62.69952 99.70176 129.00352 135.80288 202.30144 23.99744 49.39776 41.69728 100.096 42.39872 155.8016-1.39776 79.0016-24.80128 151.59808-70.69696 216.4992-84.10112 117.69856-232.00256 174.8992-370.60096 143.09888-166.90176-38.79936-285.7984-187.49952-285.7984-359.59808 0-22.5024 3.59936-39.40352 24.79616-39.40352z m843.20256-553.4976c-48.90112 85.2992-92.70272 162.2016-141.50144 246.79936-6.4 10.5984-24.09984 31.0016-41.00096 23.99744-16.9984-6.2976-16.9984-29.5936-9.20064-42.99776 37.49888-62.80192 128.70144-215.70048 135.10144-227.00032H61.99808c13.40416 23.296 55.20384 87.3984 68.60288 107.20256 25.4976 44.39552 38.89664 66.9952 63.69792 110.6944 13.39904 23.30112 17.69984 43.008-1.39776 52.20352-16.9984 4.1984-32.50176-3.50208-42.39872-21.1968-46.70464-81.1008-92.0064-163.60448-140.10368-244.00384-18.40128-30.30016 2.0992-60.60032 35.39968-60.60032 148.50048 1.40288 297.79968 0.70144 446.30016 0.70144h488.09984c31.104-0.1024 49.50016 28.09856 34.70336 54.20032zM509.7984 385.50016c79.90272 0 145.69984 64.90112 145.69984 145.2032 0 79.69792-65.1008 145.19808-144.9984 145.19808-80.59904 0-145.69984-64.90112-145.69984-145.2032 0-79.60064 65.1008-145.19808 144.9984-145.19808z m0.70144 248.20224c55.90016 0 101.89824-46.50496 101.89824-101.504 0.70144-55.70048-45.29664-102.1952-100.39808-102.89664-57.99936-0.70144-104.704 45.09696-104.704 102.1952-0.09728 56.40192 45.90592 102.20544 103.20384 102.20544z"  horiz-adv-x="1024" />

    
    <glyph glyph-name="ziyuan" unicode="&#58973;" d="M750.933333 779.605333L943.104 588.8 750.933333 371.370667v108.885333l-27.648 6.144a95.914667 95.914667 0 0 1-18.090666 0 570.026667 570.026667 0 0 1-170.666667-36.522667A466.602667 466.602667 0 0 1 341.333333 344.746667c5.12 98.645333 30.378667 187.733333 150.528 247.808A566.272 566.272 0 0 0 716.8 657.066667h34.133333V779.605333M716.8 861.866667v-170.666667a589.482667 589.482667 0 0 1-238.933333-68.266667c-178.176-89.088-170.666667-238.933333-170.666667-375.466666 68.266667 102.4 136.533333 136.533333 238.933333 170.666666a539.306667 539.306667 0 0 0 159.402667 34.133334 68.266667 68.266667 0 0 0 11.264 0v-170.666667l273.066667 307.2-273.066667 273.066667zM955.733333 281.6v-307.2a34.133333 34.133333 0 0 0-34.133333-34.133333H102.4a34.133333 34.133333 0 0 0-34.133333 34.133333V793.6a34.133333 34.133333 0 0 0 34.133333 34.133333h477.866667V861.866667H102.4a68.266667 68.266667 0 0 1-68.266667-68.266667v-819.2a68.266667 68.266667 0 0 1 68.266667-68.266667h819.2a68.266667 68.266667 0 0 1 68.266667 68.266667v307.2z"  horiz-adv-x="1024" />

    
    <glyph glyph-name="zhifufangshi" unicode="&#58897;" d="M864 800h-704a128 128 0 0 1-128-128v-576a128 128 0 0 1 128-128h704a128 128 0 0 1 128 128v576a128 128 0 0 1-128 128z m64-704a64 64 0 0 0-64-64h-704a64 64 0 0 0-64 64v448h832v-448z m0 512h-832v64a64 64 0 0 0 64 64h704a64 64 0 0 0 64-64v-64zM384 224a32 32 0 0 1 0-64h96v-64a32 32 0 0 1 64 0v64H640a32 32 0 0 1 0 64H544v64H640a32 32 0 0 1 0 64H560.384l-1.088 1.088 102.4 102.4a33.472 33.472 0 0 1-47.296 47.296L512 400.384l-102.4 102.4a33.472 33.472 0 0 1-47.296-47.296l102.4-102.4-1.088-1.088H384a32 32 0 0 1 0-64h96v-64H384z"  horiz-adv-x="1024" />

    
    <glyph glyph-name="fapiaoguanli" unicode="&#58939;" d="M895.99664 421.37778a319.9988 319.9988 0 0 1-327.678771-543.485962 51.967805 51.967805 0 0 0-53.759799 7.167973L441.598344-56.828427l-65.343755-58.111782a50.431811 50.431811 0 0 0-33.663874-12.415953 50.111812 50.111812 0 0 0-33.343875 12.287954l-65.215755 58.111782-65.983753-58.623781a50.815809 50.815809 0 0 0-33.599874-12.415953 49.919813 49.919813 0 0 0-33.407874 12.287954L34.495871-47.612461a36.607863 36.607863 0 0 0-6.271977 7.039973A67.327748 67.327748 0 0 0 0 13.25131V844.608193C0 872.960086 23.039914 896 50.75181 896h794.49302c28.031895 0 50.75181-22.847914 50.75181-51.391807V421.37778zM102.399616 466.497611c0-13.503949 11.199958-25.215905 24.959906-25.215906h231.679132c14.271946 0 24.959906 11.263958 24.959906 25.215906a25.407905 25.407905 0 0 1-24.959906 25.279905H127.359522a24.831907 24.831907 0 0 1-24.959906-25.279905z m0-202.047243c0-13.567949 11.007959-25.279905 24.639908-25.279905h181.11932a24.959906 24.959906 0 0 1 24.639908 25.279905 25.215905 25.215905 0 0 1-24.639908 25.215906h-181.11932a24.959906 24.959906 0 0 1-24.639908-25.215906z m0 429.43839c0-13.567949 11.263958-25.279905 25.215905-25.279905h333.56675c14.079947 0 25.215905 11.327958 25.215905 25.279905a25.471904 25.471904 0 0 1-25.215905 25.279905H127.615521a25.087906 25.087906 0 0 1-25.215905-25.279905zM767.99712-127.99616a255.99904 255.99904 0 1 0 0 511.99808 255.99904 255.99904 0 0 0 0-511.99808z m120.767547 259.455027a21.24792 21.24792 0 1 1 0 42.367841h-55.167793l55.039794 54.911794a21.119921 21.119921 0 0 1 0 30.079887 21.43992 21.43992 0 0 1-30.079888 0l-78.271706-77.951707-78.207707 77.887708a21.43992 21.43992 0 0 1-30.207887 0 21.119921 21.119921 0 0 1 0-30.079888l55.167794-54.847794h-51.583807a21.24792 21.24792 0 0 1 0-42.431841h85.31168v-42.431841h-85.37568a21.24792 21.24792 0 1 1 0-42.49584h85.37568v-49.471815a21.31192 21.31192 0 1 1 42.68784 0v49.471815h85.31168a21.24792 21.24792 0 0 1 0 42.49584h-85.31168v42.495841h85.31168z"  horiz-adv-x="1024" />

    
    <glyph glyph-name="zhaoshangyinhang-" unicode="&#58899;" d="M955.83 401.11H794.09l7.17-18.48h155v18.48zM219.22 202H466.6L340.36 507.85 219.22 202z m546.1 266.86H948l-1.78 8.14-1.74 7.71-0.58 2.62H757.07l8.26-18.48zM472.76 202h247.41L593.91 507.85 472.76 202zM876.16 208.14l-96.5-140.6h-527.6l-103.69 129.3L376.24 785l129.35-307.95 123.2 311 118-276.1H937.2C881.73 695.5 711.34 829.13 509.73 829.13c-246.58 0-446.49-199.91-446.49-446.5s199.9-446.49 446.49-446.49c192.87 0 357.15 122.28 419.62 293.55h-62.42l9.23-21.55zM811.51 358l8.23-18.5h134.43l2.05 18.5H811.51z m26.67-61.61H948l1.12 6.75 1.94 11.7H830l8.2-18.45z m-55.41 129.36h171.4l-0.17 1.05-1 9.71-0.84 7.71h-176.6l7.2-18.47z m65.7-153.95l8.2-17.48h81.12l5.15 17.48h-94.48z"  horiz-adv-x="1024" />

    
    <glyph glyph-name="youzhengyinhang-" unicode="&#58900;" d="M147.2 331l-4.33-24.54h129.92l5.77 24.54z m330.57-24.54L482.1 331H334.86l-5.77-24.54z m82.28 124.14L539.84 331l-5.78-24.54-20.21-99.6h-205l-4.33-23.09h239.65L575.93 331l20.21 99.6H883.4L861.75 331H632.23l-52-246.85H282.89L278.56 61H612l31.76 145.79L664 306.45h193.42l-20.21-99.6H700.07L669.76 61l-21.65-99.6h-447.5l52 245.4H64.92l21.65 99.6L90.9 331l21.65 99.6h186.22l52 245.4h205l26 124.15h379.58l-21.65-99.6H616.35L612 676l-20.21-99.6h-205l-5.77-23.1h241.1l4.33 23.1 21.66 99.6h287.26l-21.65-99.6H684.19l-26-122.7H360.85l-5.78-23.1h205z"  horiz-adv-x="1024" />

    
    <glyph glyph-name="gongshangyinhang-" unicode="&#58901;" d="M764.7 351v-199.2H544.19v64.4h150.09v73.51H544.19v199h150.09v67.5H544.19v64.43H764.7v-199H614.61v-67.47H764.7V351z m-505.58 0v-199.2H479.6v64.4H329.51v73.51H479.6v199H329.51v67.5H479.6v64.43H259.12v-199h150.09v-67.47H259.12V351zM512 832.13c-248 0-449-201-449-449s201-449 449-449 449 201 449 449-201 449-449 449z m0-808.95c-198.8 0-359.94 161.15-359.94 359.94s161.15 360 359.94 360 359.94-161.16 359.94-360S710.79 23.19 512 23.19z"  horiz-adv-x="1024" />

    
    <glyph glyph-name="zhongguoyinhang-" unicode="&#58902;" d="M963.1 402.7c-5.8 159.1-104.9 267.4-104.9 267.4C705 848.4 508.4 831.7 508.4 831.7c-209.9 6.7-339-151.6-339.1-151.5C81 575.2 71 478.6 71 478.6c-39.1-162.5 42.5-302.4 42.5-302.4 60.8-110 125-160.8 229.1-209.1 104.2-48.3 262.4-41.6 360.7 7.5 98.3 49.1 158.2 103.2 213.2 205.7 54.9 102.5 46.6 222.4 46.6 222.4zM465.9 33.6S301 42.8 210.2 201c0 0-78.3 111.6-45.8 250.7C196.9 591 272.7 646.8 287.7 661c15 14.1 112 71.8 178.2 70.8V566h-70s-95-5.8-98.3-110.8v-153.3s2.5-94.1 100.8-105h67.5v-163.3z m-56.6 260.9s-16.7-4.2-19.2 15V456.1s2.5 15.8 15 15.8h205.7s17.5 3.3 19.2-15.8v-142.4s4.2-22.5-12.5-19.2H409.3zM809.9 187c-66.6-101.6-193.2-148.3-252.4-153.3V197h78.3s83.3 16.7 88.3 103.3V474.4s-13.3 87.5-105.8 91.6h-60.8l0.1 165.8s104.1-8.3 188.2-85.8 105.8-154.9 114.9-196.6c9.2-41.6 15.8-160.8-50.8-262.4z"  horiz-adv-x="1024" />

    
    <glyph glyph-name="guangzhoushishangyeyinhang-" unicode="&#58903;" d="M70.65 404.7S100.53 840.5 553.79 828c0 0 371.08-22.47 403.45-425.89l-214.18 0.05s-127-5-231.61 196.73c0 0-117.05-179.52-244.07-194.46l-196.73 0.27z m-5-27.39l219.16-5s34.86 0 64.75-27.39l-278.93-0.16-5 32.53z m10-57.27H394.4s27.4-10 37.36-34.86l-348.66-2.5L75.63 320z m17.43-64.64l368.59-0.11s52.3-49.81 39.85-171.83c0 0 24.9-19.92 29.89 2.49 0 0-17.44 169.34 37.35 169.34l368.7 2.49-22.56-49.92-127 0.11s-44.83 10-42.34-64.75c0 0 1.91-230-226.68-206.58 0 0-239-12.57-236.54 194.13 0 0 10 89.65-52.3 69.72H110.55l-17.49 54.9z m498.09 29.78s10 39.84 64.75 29.88l291.38 2.49-5-29.89-351.15-2.49z m77.21 57.28s14.94 32.37 39.84 32.37l244.06-5-5-29.89-278.93 2.49z"  horiz-adv-x="1024" />

    
    <glyph glyph-name="huaxiayinhang-" unicode="&#58904;" d="M926.8 638.15l-31.59 40.44s-123.84-20.22-121.3 49.28c0 0 8.84 51.81-80.88 31.59 0 0-21.48 20.21-20.22 31.59 0 0 6.32 30.33-91 13.9 0 0-144.06-17.69-302-198.38 0 0-159.22-130.15-159.22 3.79 0 0-87.19-88.45-40.44-159.22 0 0 53.07-74.55 154.17-13.9 0 0-31.59-245.13 130.15-372.76 0 0 169.33-156.69 363.93-101.09 0 0 163 34.12 224.92 198.39 0 0-29.06-29.06-41.7-26.54 0 0 44.23 53.07 46.76 75.82 0 0-1.27 31.59-26.54-17.69 0 0 6.32 30.33-11.37 15.16 0 0-85.93-99.82-122.58-104.87 0 0-271.68-160.48-395.52 163 0 0-53.07 152.9 72 267.88s247.67 103.61 360.14 20.22c0 0 56.86 64.44 80.87 51.81 0 0 21.48 12.63 11.37 31.59zM550.12 484.47l276.46 1.3v-210.26H550.12V484.47z"  horiz-adv-x="1024" />

    
    <glyph glyph-name="jiaotongyinhang-" unicode="&#58905;" d="M810.35 158.72c-52.35-1.72-100.73-3.38-153.08-5.07-33.15-141-307.25-102.92-276.72 76C395.89 335.64 539.1 381.92 628 301.9c19.54-22.08 29.11-42.56 35.38-87.45 43.91 1.69 103.11 3.38 147 5.07 2.23 228-256.73 343.7-450.92 233.05-186.16-106.06-164.67-429.18 30.4-511.71v-5.07c-106.37 2.09-223 84.48-248.44 182.39l1.44 525.65C227.28 701.24 320.6 770.07 405 827.49l10.13-5.07c-5.83-79.24-2.15-209.91 2.53-305.26 52.91 51.34 88.54 105 179.87 122.87 58.87 11.5 115.19 4.57 150.73-7.6 266.79-91.4 283.4-436.13 57-554.78-5.07 0-16.07-10-24.48-11.63 0 1.69 5.27 9 9.28 16.7l20.26 76z"  horiz-adv-x="1024" />

    
    <glyph glyph-name="shenzhenfazhanyinhang-" unicode="&#58906;" d="M951 84.07l0.13 638.88C944.28 851 813.38 827.84 813.38 827.84L197 825.25C68.87 828 74.32 686.17 74.32 686.17L73 70.45c1.32-149.85 141.77-134.86 141.77-134.86l613.6-1.78C972.91-64.83 951 84.07 951 84.07z m-156.72 34.06s-324.53 224.77-560.43-30c0 0 250.19 296.72 1.36 583 0 0 302.71-262.91 560.43 5.44 0.01 0.06-248.16-290.09-1.36-558.44z"  horiz-adv-x="1024" />

    
    <glyph glyph-name="nongcunxinyongsheyinhang-" unicode="&#58907;" d="M550.83 138.42l140.84-171.79h221.74L784.56 104.47l-5.99 8.99-1 3.99-1 4v10.98l1 4 1 3.99 2 5 3.99 5.99 4.99 8.99 6 6.99L924.4 317.22l8.99 10.99 6.99 9.98 4.99 9.99 6 9.99 3.99 9.99 3 9.99 2 9.98V417.1l-2 9.99-3 8.99-3.99 9.99-6 9.98-4.99 8-6.99 9.98L656.71 798.65l-43.95-38.95 132.85-160.81 7.99-10.99 5.99-10.99 3-5.99 1-4.99 0.99-6v-4.99l-0.99-11.99-3-10.99-5-10.98-6.99-10.99-192.77-221.74-5-3.99-1.99-5-6-6.99-4.99-8.99-3-8.99-3.99-8.99-2-8.99-1-9.99-2-8.99v-9.98l2-9.99 1-10.99 3-8.99 3.99-9.99 4-9.99 4.99-9.99 4-4.99 1.99-4zM346.07 558.93l1 15.99 3 16.98 1 7.99 2.99 8.99 6 14.98 6.99 13.98 3.99 7 4 6.99 9.99 11.98 8.99 12.99 12.98 9.98 11.99 9 13.98 8.98 13.98 7 14.99 4.99 8.99 3 7.99 1 7.99 1.99 8.99 1h7.99l8.99 2 14.98-2 14.98-2.99 14.99-2 13.98-6 6.99-2.99 6.99-3 13.99-6.99 12.98-7.99 10.99-9.99 8.99-10.99 5.99-4.99 4-5.99 9.98-10.99 7-13.98 6.99-13.99 1-6.99 2.99-6.99 4-14.98 3-14.99H580.8l-67.92 67.93-87.9-85.91 87.9-85.89 67.92 67.91h96.89l-3-16.97-4-13.99-2.99-6.99-1-6.99-6.99-13.99-7-13.98-9.98-10.98-9.99-10.99-8.99-10.99-10.99-9.99-6.99-3.99-5.99-4-7-3.99-6.99-3-13.98-5.99-13.98-5-14.99-3.99-14.98-2-14.98-1-16.98 1-16.98 2.99-7.99 1-8.99 3-14.99 5.99-13.98 7-6.99 3.99-6.99 4-11.99 9.98-12.98 9.99-8.99 11.99-9.99 12.98-7.99 13.99-6.99 12.98-6 15.98-2.99 7.99-1 8-2 8.98-1 7.99-1 7.99v8.99zM471.93 138.42L332.09-33.37H109.35L239.2 104.47l4.99 8.99 2 3.99 1 4v10.98l-1 4-2 3.99-1 5-3.99 5.99-6 8.99-6.99 6.99L98.36 317.22l-7.99 10.99-6.99 9.98-5.99 9.99-5 9.99-3.99 9.99-3 9.99-3 9.98V417.1l3 9.99 3 8.99 3.99 9.99 4 9.98 6.99 8 6.99 9.98L367.05 798.65 411 759.7 278.15 598.89l-8.99-10.99-4.99-10.99-3-5.99-1-4.99-1.99-6v-4.99l1.99-11.99 2-10.99 5.99-10.98 7-10.99 192.77-221.74 4-3.99 2.99-5 5-6.99 4.99-8.99 3.99-8.99 4-8.99 1-8.99 2-9.99 1-8.99v-9.98l-1-9.99-2-10.99-2-8.99-4.99-9.99-4-9.99-4.99-9.99-3-4.99-2.99-4z"  horiz-adv-x="1024" />

    
    <glyph glyph-name="nongyeyinhang-" unicode="&#58908;" d="M515.4 828.13c-13.38 0-26.76-0.45-40.14-1.78v-215.42a17.89 17.89 0 0 1 17.84-17.84h44.6a17.89 17.89 0 0 1 17.84 17.84V826.35c-13.38 1.34-26.76 1.78-40.14 1.78zM542.61 536H605a17.89 17.89 0 0 1 17.84 17.84V783.53h44.6v-365.72A20.46 20.46 0 0 0 647 397.3H545.73c-19.62 0-20.52-10.26-20.52-10.26V518.61c-0.44 9.39 7.58 17.39 17.4 17.39zM489.09 536h-62.44a17.89 17.89 0 0 0-17.84 17.84V783.53h-44.6v-365.72a20.46 20.46 0 0 1 20.52-20.52H486c19.62 0 20.52-10.26 20.52-10.26V518.61c0.41 9.39-7.62 17.39-17.43 17.39zM382 239.86h71.36A17.89 17.89 0 0 0 471.25 222v-277h35.68V358a20.46 20.46 0 0 1-20.52 20.52H385.17c-19.62 0-20.52 10.26-20.52 10.26v-131.53c-0.45-9.37 7.58-17.39 17.39-17.39z m267.6 0h-71.31A17.89 17.89 0 0 1 560.45 222v-277h-35.68V358a20.46 20.46 0 0 0 20.52 20.52h101.23c19.62 0 20.52 10.26 20.52 10.26v-131.53c0.45-9.37-7.58-17.39-17.39-17.39zM622.89 815.2v-92.77c144.5-45.49 249.31-180.63 249.31-340.3 0-197.13-159.67-356.8-356.8-356.8S158.6 185 158.6 382.13c0 160.11 105.26 295.25 250.21 340.74V815.64C213.9 767.48 69.4 591.75 69.4 382.13c0-246.19 199.81-446 446-446s446 199.81 446 446C961.4 591.31 817.34 767 622.89 815.2zM537.25-1.43h-44.6a17.89 17.89 0 0 0-17.84 17.84v223h80.28v-223a17.89 17.89 0 0 0-17.84-17.84z"  horiz-adv-x="1024" />

    
    <glyph glyph-name="yinhang-zhongguojianshe-" unicode="&#58909;" d="M453.86 788.88S531.73 849 665.64 805.28c0 0 45.09-16.4 97-62.85L923.88 573l-86.08-86.07L591.85 737s-41 50.55-138 51.92z m355.25-332L708 358.5s-16.4-23.23-30.06-1.37L492.11 538.85s-16.4 21.86-28.69 2.73L276.23 350.3s-12.3-19.13 2.77-27.3l183.05-183.11s15-24.59 28.69-5.46l189.93 191.28s5.46 16.4 35.52 12.3h194s8.2-196.75-142.1-319.72c0 0-195.39-195.38-463.19-75.15 0 0-258.24 90.18-255.51 424.92 0 0 6.83 224.07 210.42 342.94 0 0 148.93 110.67 267.8 28.69L809.1 456.87z"  horiz-adv-x="1024" />

    
    <glyph glyph-name="yinhang-yinlian-" unicode="&#58910;" d="M311.19 639h620.24c20.29-5.95 26.15-19.42 23.91-37.11L769.94 168c-10.19-14-24.6-23.33-45.17-25.76H82.41Q57.05 144.78 67 185.83l179.2 419.3c15.15 20.67 36.91 31.84 65 33.91zM311.82 639h183.4c-28.09-2.08-49.85-13.24-65-33.91L251.05 185.83q-10-41 15.38-43.55H83q-25.36 2.5-15.38 43.55l179.2 419.3c15.18 20.68 36.91 31.87 65 33.87zM495.22 639h225.72c-28.09-2.08-49.85-13.24-65-33.91L476.78 185.83q-10-41 15.38-43.55H266.44q-25.36 2.5-15.38 43.55l179.17 419.3c15.15 20.67 36.91 31.84 65 33.91zM335.16 459.4H367l0.36-14.31h28.42v-27.74H354c-6.83-11.53-20.17-16.17-34.24-12.7l-0.14 22.39c11.78 1.43 16.64 11.31 15.52 32.35z m399-48.46h-23.62l-19.67 29.51c-1.72-1-2.18-4.5-3.9-5.48-2.87-1.64-5.42-0.43-8.29-2.07l0.19-129.38c8.2-5.34 5.5-12.22 6.1-20.45 6.56 1.31 10.7-0.71 17.25 0.61 3.73 12.79 12.08 27.47 16.41 41.08 1 3.14-0.48 6.51 0.39 9.46h-26.19l0.45 25 30.87-0.3c0 5.25 0.61 15.33 0.61 20.58h-31.93V405l92.76-1.51-0.3-24.06-30.57-1.06-0.61-20.73 29.21 0.45 0.15-22.7-30.9-0.43c-2.76 0-1-6.06-2.7-8.65v-2c3.94-0.48 8.69 1.49 12.3-1.52 3.32-2.77 1.26-9.68 4-14.25 4.78-7.93 6.26-18.42 19.89-19.82l-0.19-29.34h-20.25c-9.76 12.77-19.62 20.15-23.62 39.43l-3.93-2c-4.34-15.86-11.55-27.39-21.64-37.38h-29.5c-1.12 2.53 0.57 7.69 0.11 8.79-0.76 1.83-3.72-1.14-8 1-1.27-7.15 1.06-6-2.09-9.84-9.57 0.09-18.33-0.31-26.4 1-5 0.81 0.29 7.3-4.76 8.23-12.9 2.38-38.34 0.55-57.25 0.6v25.66c7.15 1.27 6-1.52 9.84 1.62V454.22c8.52-0.66 17.05-0.1 25.57-0.76 0.66-3.28-0.5-8.68 0.15-12 1.63 1.09 6.48-2.27 6.67-0.22 1.18 12.45 26.59 15.61 50.84 13.16 5.21-0.53-0.46 4.35 5.28 4.63 9.42 0.46 19.43 1.61 29.52 1 4.46-10.17 6.86-17.34 17.71-21.64v-27.54z m25.57 47.21h27.54v-3.93c6.31-17.16-9.76-32.85-18-42.22l-23.15-0.15-0.17 26.15c10 1.85 10.42 3.63 13.77 10.29v9.84z m-348-2h22l0.73-15.74c15.75 15.55 37.32 17.21 77.56 14.5l0.2-82.48c0-11.21-10.14-15.59-11.19-17.12l-69.75 0.69 0.32-59.33c1.94-3.45 4.37-6.12 7.51-6.1l20 0.13-0.3-27.51-42.93 0.17c-3.8 0.48-5 3.56-5 7.82l0.88 185.06z m218.39-24.7c-4.73-10-5.11-21-4.77-37.63 11.54 1.23 18 5.3 24.22 11.8-0.66 8.52 0.54 17-0.11 25.5-5.9 0-13.44 0.33-19.34 0.33z m-193.31-4.18v-24.9c2 2 4.83 2.82 6.8 4.79 16.22 13.73 22.67 6.56 36.49 10.28v9.84z m-119-30.14h80.66v-21.64H367v-23.71h29.51v-25.47h-13.82c-6.32-12.2-16.57-26.52-13.77-41.31h21.64v-23.61l-37.38-2c-18.79 10.78-17 36.72-15.74 66.89h-21.63v25.54h21.64v23.71h-19.68v21.64z m162.3-20.75l0.49 11.76-42-0.18v-11.85l41.49 0.27z m145 3V346c8.52 2 16 3.93 24.49 5.9v27.57zM496 348h19.45c-0.66-9.18-0.19-19.93-0.85-29.11-7.59-3.18-16.65-2.83-29.06-2.59v-6.12c3.09-9.73 1-18.84 10.87-22.71 4.17 4.26 9 3.47 18 3.49-0.66-9.18 0.25-18.36-0.4-27.54-16.31-0.4-29.29-1.68-36.89 3.36-20.19 13.39-15.25 47-24.77 77.3 0.66 1.31 2 2.62 2.64 3.93h21.64c2-5.25 1.92-10.94 3.89-16.18 8.88 0.42 10.38 1.84 15.52 4.38V348z m130.72-17.71v-31.48h21.68c-0.66 10.49 0 20.45-0.62 30.94-6.56 0-14.47 0.54-21 0.54z"  horiz-adv-x="1024" />

    
    <glyph glyph-name="yinhang-zhongguofazhan-" unicode="&#58911;" d="M509.88 461.71a1944.31 1944.31 0 0 0-120.47-208.12c-114-6.84-225.41-24-326.66-51.58 144.73 158.06 264.44 364.12 327.62 568.57h0.22C418.07 669.2 459 564.05 509.88 461.71zM389.41 253.62a1947 1947 0 0 0 240.9-0.53c63.62-95.87 134.84-184.09 210.14-258-209.64 47.18-449.06 48.3-658.78 0.9l-0.2 0.34 3.47 3.47 3.47 3.53 3.47 3.53 3.45 3.56 3.47 3.59 3.45 3.59 3.45 3.61 3.45 3.61 3.45 3.67 3.42 3.64 3.42 3.67 3.42 3.7 3.39 3.73 3.39 3.73 3.39 3.75 3.36 3.75 3.39 3.81 3.36 3.81 3.36 3.84 3.36 3.84 3.36 3.89 3.33 3.87 3.33 3.92 3.31 3.89a1793.58 1793.58 0 0 1 126.22 168.29zM630.32 253.08a1951.26 1951.26 0 0 0-120.44 208.6C560.84 564 601.57 669 628.13 770.56c65-205.21 184.59-412.78 331.09-569.69l-0.14-0.25c-101.89 27.51-214 45.08-328.79 52.47zM630.32 253.08c114.78-7.42 226.93-25 328.79-52.47L840.46-4.88c-75.31 73.88-146.55 162.1-210.14 258zM389.41 253.62c-63.2-95.08-133.83-182.94-207.93-257.27L62.75 202c101.25 27.62 212.64 44.74 326.66 51.6zM628.13 770.58C601.6 669.06 560.87 564 509.88 461.74 459 564.05 418.07 669.2 390.59 770.58z"  horiz-adv-x="1024" />

    
    <glyph glyph-name="yinhang-shanghaipudongfazhan-" unicode="&#58912;" d="M421.71 516.38c-83.61 165-295.18 139.78-341.61-0.65 0 0-6.46-45.53-11.56-92.91v-287.75L204.39 7.5V358.72s14.74 167.91 217.28 157.65zM222.38 248.49s223.06-30.77 230.75 197.4c-3.56 214.2 271.41 228.4 346.12 74.35 0 0-194.85-2.56-215.36-164.08 0 0 2.57-199.32-151.27-219.82 0 0-166.65-28.85-210.24 112.15z m385.72 2.63c83.61-165 291.35-137.86 337.78 2.56 0 0 14.12 32.14 15.38 91V632.43L825.41 760v-351.22s-14.77-167.91-217.32-157.66z"  horiz-adv-x="1024" />

    
    <glyph glyph-name="yinhang-zhongguoguangda-" unicode="&#58913;" d="M63.33 577.08h201.15s36.57 0 43.89-11h-36.58v-11h58.51s11-7.31 11-11h-65.85v-11h73.14s7.32-3.66 7.32-14.63H129.16v-11h230.4v-11H125.5v-11h234.06s0-7.31-3.66-11L125.5 471v-11h226.75s0-11-7.31-11H121.85v-11h215.77s0-11-7.32-14.63H125.5v-11h190.18s-3.66-14.63-32.91-11h-36.58v-11h58.52s25.6 0 29.26-11l-84.11-3.66v-11h98.74s11-7.31 11-11H129.16v-11l234.06 3.66s11-7.31 11-11h-245v-11h248.63s3.66-3.66 0-11l-248.69-3.66v-11h248.69s3.66-7.32 0-11H129.16v-18.29h248.69s3.66-7.32-3.66-11h-245v-11h237.69s0-11-7.31-11h-84.12v-11h73.14s-3.66-11-11-11h-62.14v-18.29h43.89s-7.32-14.63-62.17-11H70.65V577.08zM388.82 324.74s-7.31 51.2 54.86 62.17c0 0 109.71 21.94 113.37-47.54l3.66-128 7.29-21.95h-58.5l-3.66 18.29s-29.26-29.26-73.14-18.29c0 0-51.2 3.66-51.2 58.52 0 0-3.66 36.57 32.91 47.54 0 0 54.86 14.63 73.14 14.63 0 0 36.57 7.32 7.32 32.91 0 0-47.54 11-47.54-21.94l-58.52 3.66z m186.52 58.51h54.86v-21.94s29.26 29.26 51.2 29.26c0 0 58.52 11 69.49-54.86v-146.29H696V321.08s-14.63 36.57-54.86 14.63c0 0-18.29-7.32-14.63-51.2v-95.09h-54.83l3.66 193.83z m193.83 76.8h51.2L824 313.77l62.17 80.46h62.17l-54.86-76.8 65.83-124.34-62.17-3.66-43.89 80.46-25.6-36.57v-43.89h-54.83l-3.66 270.63z m-267-179.2v-25.6s-7.31-21.94-25.6-25.6c0 0-32.91-21.94-43.89 7.31 0 0-3.66 14.63 11 21.94 0 3.66 54.86 14.63 58.51 21.94z"  horiz-adv-x="1024" />

    
    <glyph glyph-name="yinhang-zhongguominsheng-" unicode="&#58914;" d="M502.07 545.6l87.34-47-83.3-51.07-87.34 44.35 83.3 53.76z m4 56.44l194.86-108.85-87.34-53.75s216.32-24.19 295.6-125c0 0 119.31-170.94-158.81-258.29 0 0-538.52-131.44-686.32 168.25l126.3 4s98.06-184.92 305-162.07c0 0 364.11 12.89 302.3 213.13 0 0-73.9 134.38-322.47 131.7L322 497.22 506.11 602zM427.74 276.67L515.07 325l88.68-48.38-91.37-48.38-84.65 48.38z m104 463.28c136.19-9.41 360.92-42.36 427-202.35H823.79C776.39 745.92 294 775.8 221.91 568.72c-37.05-94.93 101-203.8 200.44-202.46 20.68 0.28 53.76 11.61 85.14 4.4L683 277.41l-175.69-103-192 109 88.21 51.89C259.74 350.29 54.45 429.18 81.81 563.53c34.39 168.8 313.71 185.82 449.9 176.41z"  horiz-adv-x="1024" />

    
    <glyph glyph-name="yinhang-fujianxingye-" unicode="&#58915;" d="M568.52 640.23s-220.5 64-431.66-104.79c0 0-171.06-152.38 10.39-311.72 0 0 160.93-154.62 497-99.39 0 0 282.43 30 312.41 233.49 0 0 45.75 176.7-241.41 216.14 0 0-296.62 53.64-457.56-162.5 0 0 195.65-108.86 263.49-145.14L740.5 387.8l-96.25 48.91-119.9-61.53-97.82 53.64s94.66 86.77 241.4 60c0 0 255.6-9.47 164.09-181.43 0 0-88.36-138.84-457.56-89.93 0 0-347.11 72.57-142 309.22 0 0 82 97.81 336.07 113.59z"  horiz-adv-x="1024" />

    
    <glyph glyph-name="yinhang-zhongxinshiye-" unicode="&#58917;" d="M66.07-62.94V832.13h895.07v-895.07H66.07zM513.12-60.02L68.01 385.08 513.12 830.19l445.11-445.11-445.11-445.1zM380 643.59l1 3.89 1 1.94 1 1.94 2.92 2.91 2.91 1.94 14.58 5.83 14.58 5.83 7.78 1.94 7.78 2.92 15.45 3.91 15.55 2.91 8.75 1 7.78 1 16.52 1.94h33l8.75-1 8.75-1 15.55-1.94 16.52-2.91 15.55-3.89 15.55-4.86 14.58-5.83 14.58-6.8 2.91-1.94 2.92-2.92 1.94-2.91v-1.94l1-1.94v-2.92l-1-2.92-1-1.94-1-1.94-1.94-1.94-1.94-1-5.78-2.95-7.78-3.89-8.76-4.81-9.72-6.8-4.86-3.89-5.83-4.86-5.83-6.8-5.76-5.84-4.86-5.83-3.89-5.83-6.8-11.66-5.83-11.66-2.92-10.69-2.91-9.72-1.94-7.78-1-5.83v-432.47l-10.69-1.94-10.69-1h-44.73l-11.66 1.94-10.69 1V525l-1 6.8-1.94 8.75-2.92 8.75-3.86 9.7-4.86 10.69-2.91 5.83-3.9 5.88-3.89 4.86-3.89 5.83-5.83 5.83-4.86 5.83-5.83 4.86-4.86 3.89-5.84 3.88-4.86 2.92-8.75 4.86-6.8 3.89-5.81 2.95-1.94 1-1.94 1.94-1.9 1.88-1 1.94v5.83z m269.2-524.8L633.63 111l-16.52-6.8-17.49-5.83-16.52-3.89V520.17l1 10.69 2.92 9.72 2.92 8.75 2.91 7.78 4.86 7.78 3.89 6.8 4.86 5.83 4.86 5.83 5.83 4.86 4.86 4.86 9.72 6.8 4.86 2.92 4.86 1.94 3.89 1.94 3.89 1.94V118.8z m24.3 519l13.58-9.79 13.61-9.72 12.63-10.69L725 596.95l11.66-11.66 9.72-12.63 5.83-6.8 4.86-6.8 8.75-13.61 8.75-13.61 7.78-14.58 6.8-15.55 5.85-15.56 5.83-15.55 3.89-16.52 3.89-16.52 1-8.75 1-8.75-1-2.92-1.94-2.91-2.92-3.89-3.89-2.92-1.94-1.94-2.92-1-2.92-1-3.89-1h-3.89l-4.86 1-3.89 1-3.89 1-3.89 1.94-3.89 1.94-4.88 3.91-2.91 2.91-1.94 1.94-3.93 4.88-1.94 4.86-2.92 5.83-1 1-1 1.94-1.94 1h-3.89l-1.94-1-2.92-1.94-1.94-3.89-3.89-5.83-5.83-9.72-1.94-6.8-2.92-6.8-1-4.86v-3.89l-1-9.72v-5.83l1-5.83 1.94-6.8 2.92-6.8 2.92-6.8 1-3.89 1.94-2.92 4.86-5.83 3.89-4.86 1.94-1 1.94-1h2.91l1 1 1.94 1 1.94 2.92 2.92 6.8 3.89 4.86 3.9 5.8 2.92 1.94 2.91 2.91 2.92 1.94 3.89 1.94 3.89 1.94 3.89 1 4.86 1h4.86l3.89-1 3.89-1 3.89-2.92 3.89-1.94 2.92-2.92 1.94-2.92 1.94-1.94v-1.94l-1.94-17.49-3.89-16.52-1.94-7.78-1.94-8.75L795 284l-5.83-15.55-6.8-15.55-7.78-14.58-8.75-13.61-8.75-13.61-9.72-13.61-5.83-5.83-4.86-6.8L725 173.22l-11.66-11.66-12.63-9.72-13.61-10.69-13.61-8.75V637.76zM354.71 132.4l-14.58 10.69-7.77 4.91-7.78 5.83-6.8 5.83-6.8 6.8-6.8 5.83-5.83 6.8-12.63 13.61-5.83 7.77-5.83 6.8-4.87 7.73-5.83 7.78-9.72 15.55-3.89 8.75-4.86 7.78-6.8 17.49-3.89 8.75-2.91 8.75-2.92 8.75-2.92 9.72-1.94 8.75-1.94 9.72-2.91 19.44-1.94 19.44-1 19.44v9.69l1 9.72v9.72l1.94 9.72 1 9.72 1.94 9.72 3.89 18.46 5.83 18.47 2.91 8.75 3.89 8.75 6.8 17.49 4.86 7.78 3.89 8.75 9.72 15.55L274 562.93l11.66 14.58 12.63 13.61L311 603.75l13.61 12.63 15.55 10.69 14.58 10.69V419.1l-1-2.92-1-2.91-2.92-2.92-2.92-2.92-3.9-1.94-1.94-1-2.92-1-2.91-1h-5.83l-3.89 1-3.89 1-4.86 1-2.92 1.94-3.84 1.95-5.83 3.89-1.94 2.91-1.94 1.94-3.89 4.88-1.94 4.86-2.92 5.83-1 1-1.94 1.94-1 1h-3.89l-1.94-1-2.92-1.94-2.85-3.93-3.89-5.83-4.86-9.72-2.91-6.8-1.94-6.8-1-4.86v-3.89l-1-9.72v-5.83l1-5.83 1.94-6.8 1.94-6.8 2.91-6.8 1.94-3.89 1.94-2.92 3.89-5.83 4.86-4.86 1.94-1 1.94-1h2.92l1 1 1 1 2.91 2.92 2.92 6.8 2.92 4.86 4.83 5.84 2.92 1.94 2.91 2.91 2.92 1.94 2.92 1.94 3.89 1.94 4.86 1 3.89 1h4.86l3.89-1 3.89-1 3.89-1.94 2.91-1.94 4.86-4.86 2.91-3.89V132.4z m90.38-37.9l-17.49 4.86-16.52 4.86-7.78 3.89-7.77 2.89-7.78 3.89-7.75 3.91V608.61l6.8-2.91 9.72-4.86 4.86-3.89 4.86-2.92 4.86-3.89 4.86-4.86 4.86-5.83 4.86-5.83 3.89-5.83 4.86-6.8 2.92-7.78 2.92-8.75 2.91-8.75 1.91-10.71v-430.5z"  horiz-adv-x="1024" />

    
    <glyph glyph-name="yinhang-beijingyinhang-" unicode="&#58918;" d="M944.67 259.92l4.07 14.98 3.53 14.97 3.02 15.26 2.43 14.98 1.11 7.63 0.79 7.9 0.84 7.63 0.8 7.6 0.26 7.9 0.58 7.9v7.9l0.27 7.89-0.27 11.46-0.26 11.15-0.85 11.17-0.79 11.17-1.11 11.17-1.37 10.88-1.64 10.91-2.17 10.62-2.16 10.61-2.49 10.62-2.42 10.35-3.02 10.35-3.27 10.09-3.54 10.09-3.8 10.06-3.81 9.8-4.38 9.8-4.33 9.82-4.91 9.54-4.91 9.53-5.18 9.24-5.44 9.27-5.97 9.27-6.02 8.98-6.23 8.98-6.55 8.72-6.82 8.71-6.81 8.45-7.34 8.72-7.61 8.16-7.66 8.45-8.18 8.16-8.14 7.9-8.45 7.92-8.45 7.34-8.45 7.34-8.71 7.08-8.72 6.82-8.98 6.55-8.98 6.25-8.98 6-9.3 5.73-9.24 5.44-9.5 5.44-9.56 4.88-9.51 4.65-9.83 4.62-9.82 4.1-10.04 4.09-10.08 3.81-10.09 3.27-10.09 3.25-10.35 3.01-10.36 2.72-10.61 2.45-10.62 2.17-10.61 1.93-10.89 1.61-10.88 1.37-10.93 1.35-11.14 0.82-11.15 0.55-11.2 0.56h-22.87l-11.46-0.56-11.41-0.55-11.2-0.82-10.88-1.35-10.88-1.37-10.88-1.61-10.93-1.93-10.62-2.17-10.62-2.45-10.35-2.72-10.35-3.01-10.04-3.25-10.08-3.27-10.09-3.81-9.83-4.09-9.77-4.1-9.82-4.62-9.51-4.65-9.56-4.88-9.24-5.44-9.3-5.44-9.24-5.73-8.98-6-8.98-6.25-8.72-6.55-8.71-6.82-8.72-7.08-8.71-7.34-8.19-7.34-8.45-7.92-8.13-7.9-8.19-8.16-7.61-8.45-7.65-8.16-7.35-8.72-7.07-8.45-6.55-8.71-6.55-8.72-6.24-8.98-6.28-8.98-5.71-9.27-5.44-9.27-5.17-9.24-5.18-9.53-4.65-9.54-4.33-9.82-4.38-9.8-4.07-9.8-3.54-10.06-3.54-10.09-3.27-10.09-3.01-10.35-2.7-10.35-2.48-10.62-2.17-10.61-1.9-10.62-1.63-10.91-1.38-10.88-1.05-11.17-1.11-11.17-0.53-11.17-0.32-11.15-0.26-11.46 0.26-11.43 0.32-11.44 0.53-11.17 1.11-11.15 1.05-11.17 1.38-10.9 1.63-10.88 1.9-10.65 2.17-10.61 2.48-10.62 2.7-10.61 3.01-10.36 3.27-10.06 3.54-10.35 3.54-9.83 4.07-10.06 4.38-9.82 4.33-9.8 4.65-9.54 5.18-9.53 5.17-9.51 5.44-9.27 5.71-9.26 6.28-9.25 6.24-9 6.55-8.72 6.55-8.98 7.07-8.45 7.35-8.71 7.65-8.43 7.61-8.45 8.19-8.19 8.13-7.89 8.45-7.9 8.19-7.61 8.71-7.1 8.72-7.08 8.71-6.81 8.72-6.52 8.98-6.26 8.98-6 9.24-5.73 9.3-5.44 9.24-5.44 9.56-4.91 9.51-4.91 9.82-4.33 9.77-4.39 9.83-3.8 10.09-3.81 10.08-3.53 10.04-3.01 10.35-2.99 10.35-2.72 10.62-2.46 10.62-2.19 10.93-1.9 10.88-1.64 10.88-1.64 10.88-1.08 11.2-0.82 11.41-0.52 11.46-0.56h11.46l16.06 0.26 15.79 0.56 15.53 1.35 15.53 1.64 15.21 2.19 14.74 2.72 14.94 3.27 14.48 3.54 14.15 4.36 14.16 4.62 13.89 5.18 13.63 5.44 13.31 6.26 13.36 6.54 13.1 7.08 12.78 7.37 8.72 5.44 8.45 5.44 8.18 5.44 7.61 5.73 7.61 5.44 7.07 5.73 6.82 5.71 6.55 5.73 5.97 5.99 6.02 5.74 5.44 5.96 5.17 6 4.91 6.26 4.6 5.99 4.12 6.29 4.07 6.26 3.54 6.26 3.27 6.26 3.01 6.25 2.7 6.55 2.48 6.53 1.9 6.55 1.9 6.52 1.38 6.81 1.05 6.55 0.85 6.79 0.26 6.81 0.26 6.82-0.26 7.07-0.26 6.82-0.85 7.08-1.05 7.07-1.38 5.73-1.37 5.97-1.64 5.47-1.64 5.7-2.16 5.47-2.17 5.18-2.48 5.17-2.69 5.18-3.01 4.89-3.01 4.91-3.54 4.88-3.54 4.65-3.8 4.36-3.81 4.36-4.38 4.35-4.33 4.36-4.65 4.07-4.91 3.83-5.18 3.8-5.12 3.8-5.5 3.57-5.7 3.54-5.97 3.25-6.28 3.54-6.29 3.01-6.5 2.98-6.81 3.01-7.08 2.72-7.34 2.72-7.39 2.72-7.61 2.46-7.92 2.45-20.39 7.08 6.5 3.8 6.28 4.1 5.97 4.09 5.49 4.36 5.18 4.62 4.86 4.62 4.38 4.91 4.07 5.18 3.8 5.18 3.28 5.44 3.27 5.73 2.48 5.7 2.43 6 1.91 5.99 1.37 6.26 1.37 6.55 0.53 7.61 0.27 7.07-0.27 7.37-0.53 7.37-1.37 7.05-1.9 7.11-2.17 6.78-2.75 7.11-3.27 6.78-3.8 6.82-4.39 6.81-4.86 6.53-5.49 6.54-5.97 6.55-6.55 6.26-6.81 6.26-7.61 6.55-7.6 6.26-7.92 5.71-8.19 5.46-8.4 5.18-8.72 4.88-9.03 4.36-9.24 4.36-9.51 3.83-9.82 3.8-10.09 3.28-10.35 2.98-10.62 2.72-10.88 2.72-11.2 2.19-11.41 1.9-13.1 1.91-13.04 1.63-13.63 1.38-13.63 1.08-13.89 1.08-14.15 0.82-14.16 0.55-14.68 0.27-14.74 0.26-15-0.26h-15.21l-15.53-0.53-15.79-0.82-16.06-0.84-16.11-0.79-16.32-1.38V459l13.05 1.63 13.1 1.64 13.04 1.08 13.36 1.11 13.1 0.82 13.31 0.53 13.37 0.29h26.93l13.37-0.55 13.63-0.56 13.62-1.08 13.58-1.08 13.62-1.38 13.89-1.63 13.9-1.64 11.19-1.9 10.62-2.17 9.77-2.46 9.3-2.45 8.45-2.99 7.87-3.01 7.34-3.27 6.55-3.54 3.01-1.61 2.69-1.93 2.75-2.16 2.43-1.91 2.48-2.19 1.9-2.16 2.17-2.2 1.64-2.16 1.63-2.46 1.64-2.45 1.37-2.46 1.06-2.72 0.85-2.46 0.79-2.71 0.58-2.73 0.53-3.01V394.19l-0.53-2.46-0.58-2.72-2.17-5.99-3.01-6.82-1.9-2.72-2.16-2.72-2.43-2.45-3.01-1.9-3.01-1.91-3.28-1.63-3.54-1.38-3.8-1.08-4.07-0.82-4.65-0.82-4.65-0.26H590.57l-5.44 0.26-5.7 0.82-6.29 0.82-16.32 1.9-16.06 1.64-16.05 1.37-15.85 1.09-15.47 0.81-15.53 0.56-15.53 0.26-15.27 0.27-15-0.27-14.94-0.26-15-0.56-14.69-0.81-14.42-1.09-14.47-1.37-14.16-1.64-14.15-1.9v-143.53l19.86 2.19 19.33 2.16 19.07 1.64 19.07 1.37 18.27 0.82 18.23 0.82 17.69 0.26h17.43l17.16-0.55 16.91-0.53 16.32-1.11 16.11-1.61 15.79-1.63 15.53-2.2 14.95-2.43 14.73-2.74 11.68-2.17 10.93-2.72 10.35-2.72 9.51-3.01 8.98-3.54 8.19-3.54 3.8-1.9 3.54-1.9 3.53-1.93 3.28-2.16 3.01-2.2 2.96-2.16 2.75-2.46 2.43-2.19 2.48-2.43 2.16-2.46 1.9-2.45 1.91-2.72 1.63-2.72 1.38-2.72 1.37-2.72 0.79-3.01 1.11-2.72 0.53-2.99 0.53-3.01 0.58-3.27v-2.43l0.26-2.72-0.26-2.75v-2.43l-0.58-2.72-0.53-2.45-0.79-2.75-0.85-2.43-1.05-2.75-1.38-2.43-1.37-2.72-1.64-2.74-3.54-5.45-4.33-5.43-2.74-3.28-3.28-2.98-3.28-3.01-3.53-2.72-3.54-2.72-3.8-2.73-3.81-2.45-4.12-2.46-4.07-2.43-4.32-2.19-4.65-2.19-4.65-2.17-4.91-1.9-5.13-1.9-5.17-1.64-5.5-1.64-5.44-1.63-5.7-1.38-5.71-1.34-6.28-1.08-12.52-2.2-13.1-1.9-13.89-1.34-14.68-1.11-15.27-0.56H508.33l-8.45 0.29-8.45 0.53-8.39 0.55-8.19 0.82-8.19 1.09-7.87 1.11-8.19 1.34-7.87 1.64-7.92 1.9-7.61 1.9-7.65 2.19-7.61 2.17-7.61 2.74-7.39 2.73-7.34 2.72-7.34 3.25-7.35 3.27-7.07 3.27-7.14 3.81-6.76 3.83-6.81 4.06-6.81 4.1-6.82 4.35-6.55 4.63-6.55 4.91-6.49 4.91-6.55 5.18-6.29 5.44-6.23 5.44-6.02 5.73-6.23 5.99-5.76 5.97-5.7 6.29-5.71 6.26-5.44 6.26-5.18 6.25-4.91 6.55-4.91 6.53-4.65 6.55-4.33 6.81-4.38 6.52-4.07 7.08-3.8 6.81-3.54 7.08-3.54 7.08-3.27 7.08-3.28 7.37-3.01 7.08-2.7 7.63-2.48 7.34-2.43 7.63-2.16 7.63-1.96 7.61-1.9 7.9-1.58 7.92-1.37 7.89-1.38 8.16-0.84 8.17-1.06 8.18-0.58 8.16-0.53 8.45-0.26 8.46V389.83l0.26 8.45 0.53 8.43 0.58 8.18 1.06 8.16 0.84 8.16 1.38 7.9 1.37 8.19 1.58 7.63 1.9 7.9 1.96 7.6 2.16 7.92 2.43 7.35 2.48 7.63 2.7 7.34 3.01 7.37 3.28 7.34 3.27 7.08 3.54 7.08 3.54 7.07 3.8 7.11 4.07 6.79 4.38 6.81 4.33 6.55 4.65 6.81 4.91 6.52 4.91 6.55 5.18 6.26 5.44 6.26 5.71 6.26 5.7 6.26 5.76 6 6.23 5.99 6.28 5.73 6.24 5.44 6.28 5.44 6.55 5.18 6.5 4.91 6.55 4.89 6.55 4.64 6.81 4.36 6.81 4.36 6.82 4.07 7.08 3.82 7.07 3.81 7.08 3.54 7.08 3.27 7.34 3.01 7.34 2.99 7.4 2.72 7.6 2.72 7.35 2.19 7.92 2.17 7.6 2.16 7.93 1.67 7.87 1.61 7.92 1.37 7.87 1.34 8.19 1.12 8.45 0.81 8.13 0.53 8.45 0.56 8.45 0.26 8.45 0.26 8.46-0.26 8.45-0.26 8.45-0.56 8.13-0.53 8.19-0.81 8.19-1.12 7.87-1.34 7.92-1.37 7.87-1.61 7.92-1.67 7.61-2.16 7.66-2.17 7.6-2.19 7.34-2.72 7.66-2.72 7.08-2.99 7.34-3.01 7.08-3.27 7.08-3.54 7.08-3.81 6.81-3.82 7.07-4.07 6.56-4.36 6.81-4.36 6.5-4.64 6.55-4.89 6.28-4.91 6.5-5.18 6.28-5.44 6.02-5.44 6.24-5.73 6.02-5.99 5.7-6 5.71-5.97 5.7-6.28 5.49-6.26 5.18-6.26 4.86-6.55 4.91-6.53 4.65-6.54 4.33-6.82 4.12-6.78 4.07-6.82 4.07-7.07 3.54-6.82 3.53-7.37 3.28-7.08 3.27-7.34 3.01-7.36 2.7-7.35 2.48-7.63 2.43-7.61 2.17-7.63 1.95-7.63 1.9-7.9 1.64-7.89 1.32-7.9 1.11-8.19 1.11-8.16 0.79-8.16 0.84-8.18 0.53-8.43 0.27-8.45v-8.45l-1.64-35.94 7.08-4.36 7.08-4.09 7.07-4.63 6.82-4.62 6.54-4.91 6.56-4.91 6.55-4.89 6.23-5.46 6.28-5.45 6.24-5.44 5.75-5.73 5.97-5.7 5.71-6.26 5.44-5.99 5.49-6.55 5.44-6.53z"  horiz-adv-x="1024" />

    
    </font>
</defs>
</svg>
